<svg width="1430" height="278" viewBox="0 0 1430 278" fill="none" xmlns="http://www.w3.org/2000/svg">
<g clip-path="url(#clip0_293_1151)">
<path d="M305.793 63.4653C309.366 62.6942 312.994 62.2027 316.643 61.9953C319.983 61.8353 322.863 61.7552 325.303 61.7552C328.553 61.7552 331.813 61.8353 335.063 61.9953C338.093 62.135 341.105 62.5433 344.063 63.2153L371.623 157.135L398.733 63.2153C401.493 62.7253 404.423 62.3652 407.513 62.1152C410.603 61.8652 413.693 61.7552 416.783 61.7552C419.223 61.7552 422.03 61.8353 425.203 61.9953C428.85 62.2235 432.476 62.7148 436.053 63.4653L388.243 189.335C385.01 189.843 381.752 190.177 378.483 190.335C375.073 190.495 372.223 190.575 369.953 190.575C367.513 190.575 364.746 190.495 361.653 190.335C358.697 190.183 355.759 189.774 352.873 189.115L305.793 63.4653Z" fill="#F1F5F9"/>
<path d="M454.113 136.885C454.78 146.645 458.193 153.719 464.353 158.105C470.513 162.492 478.646 164.689 488.753 164.695C494.439 164.683 500.113 164.154 505.703 163.115C511.316 162.097 516.827 160.584 522.173 158.595C524.141 162.317 525.694 166.244 526.803 170.305C528.133 175.077 528.872 179.994 529.003 184.945C516.336 189.825 502.023 192.265 486.063 192.265C474.35 192.265 464.306 190.639 455.933 187.385C448.146 184.52 441.132 179.885 435.443 173.845C430.071 167.92 426.073 160.883 423.733 153.235C421.134 144.778 419.852 135.972 419.933 127.125C419.87 118.275 421.189 109.469 423.843 101.025C426.249 93.2503 430.186 86.0353 435.423 79.8053C440.642 73.7222 447.126 68.8521 454.423 65.5353C461.983 62.0353 470.806 60.2853 480.893 60.2853C488.942 60.1389 496.928 61.7212 504.313 64.9253C510.953 67.8795 516.895 72.2001 521.753 77.6053C526.671 83.1516 530.382 89.6591 532.653 96.7153C535.136 104.399 536.372 112.431 536.313 120.505C536.313 123.592 536.193 126.642 535.953 129.655C535.703 132.655 535.423 135.055 535.093 136.845L454.113 136.885ZM503.633 112.715C503.3 104.915 501.143 98.6153 497.163 93.8153C493.183 89.0153 487.613 86.6153 480.453 86.6153C472.326 86.6153 466.146 88.892 461.913 93.4453C457.68 97.9986 455.16 104.422 454.353 112.715H503.633Z" fill="#F1F5F9"/>
<path d="M540.703 63.2152C543.143 62.7252 545.463 62.3652 547.703 62.1152C550.091 61.8651 552.492 61.745 554.893 61.7552C557.301 61.7514 559.707 61.9151 562.093 62.2452C564.44 62.5652 566.773 62.9719 569.093 63.4652C569.701 64.5743 570.152 65.7623 570.433 66.9952C570.843 68.5452 571.203 70.1652 571.533 71.8752C571.863 73.5852 572.143 75.2952 572.383 76.9952C572.623 78.6952 572.833 80.1352 572.993 81.2652C576.652 76.118 581.065 71.5502 586.083 67.7152C591.283 63.7152 597.786 61.7152 605.593 61.7152C607.226 61.7152 609.096 61.7952 611.203 61.9552C612.771 62.033 614.327 62.2777 615.843 62.6852C616.196 64.5393 616.44 66.4125 616.573 68.2952C616.733 70.4152 616.813 72.6119 616.813 74.8852C616.813 77.6519 616.693 80.6519 616.453 83.8852C616.221 87.0024 615.773 90.0998 615.113 93.1552C613.132 92.8108 611.124 92.6468 609.113 92.6652H605.113C602.005 92.6946 598.905 92.9789 595.843 93.5152C592.26 94.1638 588.903 95.72 586.093 98.0352C583 100.469 580.436 104.135 578.403 109.035C576.37 113.935 575.353 120.765 575.353 129.525V189.525C572.447 190.022 569.516 190.356 566.573 190.525C563.643 190.685 560.803 190.765 558.033 190.765C555.263 190.765 552.463 190.685 549.623 190.525C546.638 190.342 543.664 190.008 540.713 189.525L540.703 63.2152Z" fill="#F1F5F9"/>
<path d="M798.743 105.455C798.861 102.17 798.174 98.905 796.743 95.9452C795.513 93.5816 793.659 91.6 791.383 90.2152C788.791 88.7277 785.929 87.7724 782.963 87.4052C779.308 86.9102 775.621 86.6796 771.933 86.7152C762.364 86.8575 752.885 88.5877 743.883 91.8352C741.778 88.0173 740.062 83.997 738.763 79.8352C737.54 75.4696 736.963 70.9481 737.053 66.4152C744.043 64.0187 751.226 62.2255 758.523 61.0552C765.134 59.9606 771.822 59.3888 778.523 59.3452C795.436 59.3452 808.65 63.4119 818.163 71.5452C827.676 79.6785 832.433 92.6785 832.433 110.545V183.725C825.615 185.797 818.692 187.506 811.693 188.845C802.608 190.555 793.377 191.373 784.133 191.285C776.474 191.347 768.83 190.614 761.323 189.095C754.962 187.854 748.909 185.366 743.513 181.775C738.625 178.439 734.678 173.9 732.053 168.595C729.386 163.262 728.053 156.679 728.053 148.845C728.053 141.012 729.72 134.465 733.053 129.205C736.284 124.028 740.699 119.693 745.933 116.555C751.406 113.31 757.381 110.999 763.613 109.715C770.026 108.345 776.565 107.651 783.123 107.645C787.843 107.645 793.05 107.889 798.743 108.375V105.455ZM798.743 130.585C796.743 130.265 794.673 129.975 792.393 129.735C790.368 129.502 788.331 129.378 786.293 129.365C778.293 129.365 771.993 130.789 767.393 133.635C762.793 136.482 760.46 141.075 760.393 147.415C760.393 151.649 761.286 154.902 763.073 157.175C764.757 159.373 766.983 161.096 769.533 162.175C772.094 163.262 774.811 163.937 777.583 164.175C780.433 164.415 782.913 164.545 785.023 164.545C787.476 164.546 789.924 164.342 792.343 163.935C794.783 163.525 796.893 163.165 798.693 162.835L798.743 130.585Z" fill="#F1F5F9"/>
<path d="M673.083 193.345C639.913 193.345 616.763 174.015 615.333 149.435H648.983C650.173 159.435 659.483 167.095 672.853 167.095C685.973 167.095 693.133 161.095 693.133 153.495C693.133 129.865 618.433 144.895 618.433 96.4952C618.433 74.4952 638.003 56.8752 670.703 56.8752C702.703 56.8752 722.013 74.2952 723.923 100.545H691.933C690.933 90.2852 682.863 83.3652 669.733 83.3652C657.323 83.3652 650.883 88.3652 650.883 96.0152C650.883 120.115 724.153 105.085 725.103 153.535C725.113 176.165 705.303 193.345 673.083 193.345Z" fill="#F1F5F9"/>
<path d="M1304.04 106.005C1304.17 102.68 1303.49 99.3739 1302.04 96.3752C1300.8 93.9813 1298.92 91.9751 1296.61 90.5752C1293.99 89.0739 1291.1 88.1117 1288.1 87.7452C1284.38 87.2254 1280.63 86.9781 1276.87 87.0052C1267.19 87.144 1257.59 88.8946 1248.48 92.1852C1246.36 88.3343 1244.62 84.2809 1243.3 80.0852C1242.06 75.6716 1241.48 71.099 1241.57 66.5152C1255.1 61.9011 1269.28 59.4838 1283.57 59.3552C1300.69 59.3552 1314.06 63.4686 1323.68 71.6952C1333.31 79.9219 1338.12 93.0886 1338.12 111.195V185.195C1331.22 187.291 1324.21 189.02 1317.12 190.375C1307.93 192.107 1298.59 192.934 1289.23 192.845C1281.48 192.908 1273.75 192.164 1266.15 190.625C1259.72 189.374 1253.6 186.855 1248.15 183.215C1243.2 179.845 1239.21 175.253 1236.55 169.885C1233.83 164.459 1232.47 157.792 1232.47 149.885C1232.47 141.979 1234.16 135.355 1237.54 130.015C1240.82 124.757 1245.3 120.355 1250.62 117.175C1256.16 113.892 1262.21 111.556 1268.51 110.265C1275.01 108.88 1281.62 108.176 1288.26 108.165C1293.03 108.165 1298.3 108.412 1304.06 108.905L1304.04 106.005ZM1304.04 131.435C1302.04 131.102 1299.9 130.812 1297.62 130.565C1295.57 130.337 1293.51 130.213 1291.45 130.195C1283.38 130.195 1277 131.635 1272.32 134.515C1267.64 137.395 1265.31 142.045 1265.32 148.465C1265.32 152.745 1266.23 156.035 1268.04 158.335C1269.75 160.561 1272 162.304 1274.58 163.395C1277.18 164.483 1279.93 165.157 1282.73 165.395C1285.6 165.635 1288.11 165.765 1290.26 165.765C1292.74 165.762 1295.22 165.555 1297.66 165.145C1300.13 164.732 1302.27 164.362 1304.08 164.035L1304.04 131.435Z" fill="#F1F5F9"/>
<path d="M896.773 192.415C863.603 192.415 840.453 173.085 839.013 148.495H872.673C873.863 158.495 883.173 166.155 896.533 166.155C909.663 166.155 916.823 160.155 916.823 152.555C916.823 128.925 842.123 143.965 842.123 95.5553C842.123 73.5553 861.693 55.9353 894.383 55.9353C926.383 55.9353 945.703 73.3553 947.613 99.6153H915.613C914.613 89.3453 906.543 82.4253 893.423 82.4253C881.013 82.4253 874.563 87.4253 874.563 95.0753C874.563 119.185 947.833 104.145 948.793 152.595C948.803 175.225 928.993 192.415 896.773 192.415Z" fill="#F1F5F9"/>
<path d="M1171.73 158.105C1173.87 161.689 1175.55 165.526 1176.73 169.525C1178.16 174.518 1178.83 179.694 1178.73 184.885C1172.7 187.319 1166.4 188.999 1159.95 189.885C1153.89 190.638 1147.78 191.009 1141.67 190.995C1130.83 190.995 1121.4 189.329 1113.38 185.995C1105.78 182.934 1098.98 178.188 1093.48 172.115C1088.1 166.015 1084.05 158.864 1081.58 151.115C1076.29 134.039 1076.25 115.766 1081.46 98.6652C1083.91 90.8936 1087.91 83.7032 1093.23 77.5352C1098.64 71.3621 1105.38 66.4909 1112.93 63.2852C1120.77 59.8452 1129.87 58.1252 1140.22 58.1252C1143.9 58.1252 1147.28 58.2052 1150.36 58.3652C1153.34 58.5265 1156.31 58.8604 1159.25 59.3652C1162.12 59.8805 1164.96 60.5481 1167.76 61.3652C1170.6 62.1852 1173.77 63.2486 1177.27 64.5552C1177.22 68.816 1176.71 73.0592 1175.77 77.2152C1174.78 81.8639 1173.18 86.3621 1171.01 90.5952C1166.73 89.1399 1162.33 88.0329 1157.87 87.2852C1153.6 86.6736 1149.3 86.3861 1144.98 86.4252C1134.62 86.4252 1126.82 89.7586 1121.57 96.4252C1116.33 103.092 1113.69 112.522 1113.65 124.715C1113.65 137.989 1116.49 147.655 1122.16 153.715C1127.84 159.775 1135.5 162.805 1145.16 162.805C1147.66 162.805 1149.96 162.762 1152.04 162.675C1154.1 162.6 1156.14 162.397 1158.17 162.065C1160.25 161.718 1162.3 161.227 1164.31 160.595C1166.43 159.905 1168.93 159.085 1171.73 158.105Z" fill="#F1F5F9"/>
<path d="M1189.56 90.1352C1189.56 90.1352 1189.49 69.3652 1189.49 63.9152L1197.84 63.1552C1204.62 62.4552 1211.46 62.4753 1218.23 63.2152L1226.58 64.1252V188.645C1220.41 189.588 1214.18 190.069 1207.94 190.085C1201.79 190.063 1195.65 189.581 1189.56 188.645V90.1352ZM1189.2 43.1352C1188.17 37.8173 1187.64 32.4129 1187.63 26.9952C1187.66 21.5784 1188.18 16.1754 1189.2 10.8552C1192.18 10.3752 1195.38 10.0152 1198.78 9.77522C1202.19 9.53522 1205.29 9.41522 1208.09 9.41522C1211.07 9.41522 1214.3 9.53522 1217.8 9.77522C1221.3 10.0152 1224.54 10.3752 1227.5 10.8552C1228 13.5228 1228.33 16.2177 1228.5 18.9252C1228.68 21.5919 1228.76 24.2819 1228.76 26.9952C1228.76 29.5619 1228.68 32.2286 1228.5 34.9952C1228.34 37.7431 1228 40.4782 1227.5 43.1852C1224.33 43.6983 1221.14 44.0322 1217.93 44.1852C1214.52 44.3452 1211.32 44.4252 1208.35 44.4252C1205.55 44.4252 1202.41 44.3452 1198.91 44.1852C1195.66 44.0331 1192.42 43.6959 1189.2 43.1752V43.1352Z" fill="#F1F5F9"/>
<path d="M1345.17 9.07526C1351.43 8.094 1357.74 7.59586 1364.07 7.58527C1370.31 7.6035 1376.54 8.10163 1382.7 9.07526V140.015C1382.62 144.192 1382.94 148.367 1383.63 152.485C1384.04 155.129 1385.04 157.646 1386.56 159.845C1387.86 161.575 1389.68 162.844 1391.75 163.465C1394.35 164.196 1397.05 164.533 1399.75 164.465C1401.17 164.465 1402.75 164.375 1404.41 164.215C1406.06 164.05 1407.71 163.8 1409.33 163.465C1411.24 169.946 1412.22 176.661 1412.26 183.415V187.035C1412.24 188.256 1412.06 189.47 1411.73 190.645C1408.38 191.572 1404.95 192.159 1401.48 192.395C1397.48 192.725 1393.8 192.895 1390.48 192.895C1376.81 192.895 1365.85 189.362 1357.6 182.295C1349.36 175.229 1345.21 163.702 1345.17 147.715V9.07526Z" fill="#F1F5F9"/>
<path d="M1012.13 191.955C1001.66 191.955 992.566 190.255 984.853 186.855C977.442 183.679 970.874 178.817 965.673 172.655C960.486 166.38 956.592 159.141 954.213 151.355C951.576 142.803 950.274 133.895 950.353 124.945C950.285 115.918 951.587 106.932 954.213 98.2953C956.549 90.407 960.446 83.0685 965.673 76.7153C970.89 70.5382 977.45 65.6365 984.853 62.3853C992.573 58.8986 1001.67 57.1553 1012.13 57.1553C1022.6 57.1553 1031.73 58.8986 1039.53 62.3853C1047 65.6382 1053.63 70.5371 1058.93 76.7153C1064.22 83.0201 1068.12 90.3609 1070.39 98.2653C1072.94 106.918 1074.2 115.897 1074.13 124.915C1074.21 133.856 1072.95 142.757 1070.39 151.325C1068.08 159.138 1064.18 166.39 1058.93 172.625C1053.64 178.791 1046.99 183.65 1039.5 186.825C1031.72 190.245 1022.59 191.955 1012.13 191.955ZM1012.13 165.055C1021.47 165.055 1028.13 161.609 1032.13 154.715C1036.13 147.822 1038.17 137.899 1038.23 124.945C1038.23 111.999 1036.2 102.075 1032.13 95.1753C1028.07 88.2753 1021.4 84.8286 1012.13 84.8353C1002.99 84.8353 996.39 88.2819 992.323 95.1753C988.256 102.069 986.223 111.992 986.223 124.945C986.223 137.899 988.256 147.822 992.323 154.715C996.39 161.609 1002.99 165.055 1012.13 165.055Z" fill="#F1F5F9"/>
<path d="M347.843 245.205C347.925 246.946 347.588 248.681 346.861 250.264C346.134 251.848 345.037 253.233 343.663 254.305C340.873 256.485 337.103 257.575 332.323 257.575C327.156 257.575 323.18 256.909 320.393 255.575V250.575C322.275 251.372 324.231 251.981 326.233 252.395C328.295 252.83 330.396 253.051 332.503 253.055C335.883 253.055 338.43 252.389 340.143 251.055C340.98 250.427 341.652 249.604 342.1 248.658C342.548 247.712 342.758 246.671 342.713 245.625C342.766 244.31 342.447 243.007 341.793 241.865C341.027 240.733 339.997 239.803 338.793 239.155C336.711 238.041 334.54 237.101 332.303 236.345C328.243 234.879 325.343 233.135 323.603 231.115C321.792 228.892 320.863 226.08 320.993 223.215C320.939 221.657 321.255 220.109 321.913 218.696C322.572 217.283 323.555 216.046 324.783 215.085C327.31 213.085 330.643 212.085 334.783 212.085C338.908 212.033 342.998 212.855 346.783 214.495L345.203 218.975C341.895 217.507 338.323 216.724 334.703 216.675C332.466 216.544 330.248 217.163 328.403 218.435C327.661 219.004 327.066 219.744 326.671 220.592C326.276 221.44 326.091 222.371 326.133 223.305C326.081 224.61 326.37 225.906 326.973 227.065C327.673 228.184 328.643 229.108 329.793 229.755C331.725 230.851 333.758 231.758 335.863 232.465C340.443 234.112 343.593 235.885 345.313 237.785C347.076 239.843 347.982 242.499 347.843 245.205Z" fill="#F1F5F9"/>
<path d="M354.073 214.845C354.035 214.389 354.088 213.931 354.231 213.496C354.374 213.061 354.602 212.66 354.903 212.315C355.466 211.783 356.218 211.495 356.993 211.515C357.374 211.509 357.752 211.578 358.105 211.719C358.459 211.86 358.781 212.069 359.053 212.335C359.365 212.67 359.604 213.066 359.754 213.498C359.903 213.931 359.961 214.389 359.923 214.845C359.96 215.303 359.902 215.763 359.752 216.196C359.602 216.63 359.364 217.028 359.053 217.365C358.495 217.9 357.751 218.199 356.978 218.199C356.205 218.199 355.461 217.9 354.903 217.365C354.604 217.021 354.377 216.621 354.235 216.189C354.092 215.756 354.037 215.299 354.073 214.845ZM359.443 256.965H354.443V223.825H359.443V256.965Z" fill="#F1F5F9"/>
<path d="M389.513 247.925C389.582 249.304 389.308 250.678 388.714 251.924C388.121 253.171 387.227 254.25 386.113 255.065C383.846 256.732 380.663 257.569 376.563 257.575C372.223 257.575 368.843 256.879 366.423 255.485V250.835C368.015 251.65 369.692 252.287 371.423 252.735C373.124 253.185 374.874 253.42 376.633 253.435C378.71 253.559 380.782 253.124 382.633 252.175C383.234 251.81 383.738 251.305 384.101 250.703C384.464 250.101 384.676 249.42 384.718 248.718C384.761 248.016 384.632 247.314 384.344 246.673C384.056 246.031 383.616 245.47 383.063 245.035C381.071 243.658 378.896 242.564 376.603 241.785C374.342 241.012 372.167 240.006 370.113 238.785C368.946 238.051 367.967 237.054 367.253 235.875C366.598 234.679 366.273 233.329 366.313 231.965C366.274 230.713 366.551 229.471 367.119 228.354C367.687 227.237 368.528 226.281 369.563 225.575C371.733 224.015 374.703 223.225 378.483 223.225C382.039 223.235 385.556 223.977 388.813 225.405L387.043 229.485C384.234 228.221 381.202 227.525 378.123 227.435C376.284 227.318 374.448 227.705 372.813 228.555C372.263 228.858 371.806 229.305 371.491 229.847C371.176 230.39 371.014 231.008 371.023 231.635C370.998 232.444 371.233 233.239 371.693 233.905C372.299 234.665 373.063 235.283 373.933 235.715C375.781 236.662 377.693 237.48 379.653 238.165C383.533 239.605 386.156 241.049 387.523 242.495C388.869 243.977 389.583 245.925 389.513 247.925Z" fill="#F1F5F9"/>
<path d="M406.603 253.435C408.116 253.427 409.622 253.222 411.083 252.825V256.715C410.326 257.039 409.529 257.257 408.713 257.365C407.781 257.526 406.838 257.613 405.893 257.625C399.56 257.625 396.396 254.249 396.403 247.495V227.715H391.713V225.295L396.403 223.205L398.493 216.135H401.353V223.815H410.843V227.715H401.353V247.225C401.244 248.876 401.745 250.51 402.763 251.815C403.241 252.355 403.834 252.781 404.499 253.062C405.163 253.342 405.882 253.47 406.603 253.435Z" fill="#F1F5F9"/>
<path d="M429.933 257.575C425.1 257.575 421.286 256.082 418.493 253.095C415.7 250.109 414.293 245.982 414.273 240.715C414.273 235.382 415.57 231.139 418.163 227.985C419.423 226.444 421.023 225.215 422.838 224.396C424.653 223.577 426.633 223.19 428.623 223.265C430.448 223.181 432.268 223.506 433.952 224.215C435.635 224.924 437.139 226.001 438.353 227.365C440.733 230.092 441.926 233.695 441.933 238.175V241.355H419.403C419.503 245.249 420.473 248.202 422.313 250.215C424.153 252.215 426.743 253.215 430.083 253.215C433.68 253.202 437.235 252.443 440.523 250.985V255.455C438.918 256.176 437.242 256.729 435.523 257.105C433.68 257.45 431.807 257.608 429.933 257.575ZM428.593 227.425C427.42 227.371 426.249 227.576 425.163 228.025C424.078 228.475 423.105 229.157 422.313 230.025C420.631 232.059 419.662 234.588 419.553 237.225H436.653C436.653 234.055 435.953 231.635 434.563 229.945C433.825 229.09 432.9 228.418 431.859 227.981C430.818 227.544 429.69 227.353 428.563 227.425H428.593Z" fill="#F1F5F9"/>
<path d="M490.533 256.965V235.405C490.533 232.739 489.976 230.759 488.863 229.465C488.203 228.765 487.394 228.221 486.495 227.875C485.597 227.529 484.633 227.389 483.673 227.465C480.583 227.465 478.313 228.365 476.833 230.155C475.353 231.945 474.633 234.715 474.633 238.445V256.945H469.633V235.405C469.633 232.765 469.083 230.785 467.963 229.465C466.843 228.145 465.113 227.465 462.743 227.465C459.643 227.465 457.363 228.405 455.923 230.295C454.483 232.185 453.763 235.295 453.763 239.555V256.945H448.763V223.825H452.763L453.573 228.365H453.933C454.872 226.744 456.261 225.431 457.933 224.585C459.696 223.659 461.662 223.188 463.653 223.215C468.766 223.215 472.1 225.092 473.653 228.845H473.893C474.881 227.096 476.354 225.669 478.133 224.735C480.077 223.702 482.252 223.179 484.453 223.215C488.153 223.215 490.923 224.215 492.763 226.105C494.603 227.995 495.523 231.105 495.523 235.345V256.965H490.533Z" fill="#F1F5F9"/>
<path d="M524.273 256.965L523.273 252.255H523.033C521.762 254.025 520.09 255.467 518.153 256.465C516.232 257.263 514.162 257.641 512.083 257.575C509.308 257.735 506.578 256.826 504.453 255.035C502.613 253.342 501.693 250.932 501.693 247.805C501.693 241.139 506.976 237.632 517.543 237.285L523.093 237.105V235.045C523.093 232.445 522.54 230.525 521.433 229.285C520.333 228.045 518.563 227.425 516.143 227.425C512.906 227.555 509.742 228.424 506.893 229.965L505.363 226.125C507.038 225.216 508.818 224.514 510.663 224.035C512.549 223.536 514.492 223.281 516.443 223.275C520.336 223.275 523.223 224.155 525.103 225.915C526.983 227.675 527.923 230.485 527.923 234.345V256.965H524.273ZM513.083 253.435C514.405 253.508 515.729 253.317 516.977 252.875C518.225 252.432 519.372 251.745 520.353 250.855C521.264 249.903 521.969 248.773 522.424 247.536C522.878 246.299 523.072 244.981 522.993 243.665V240.665L518.043 240.885C514.103 241.025 511.263 241.642 509.523 242.735C508.667 243.277 507.974 244.04 507.514 244.942C507.055 245.845 506.847 246.855 506.913 247.865C506.859 248.632 506.977 249.402 507.257 250.118C507.537 250.834 507.973 251.478 508.533 252.005C509.822 253.025 511.442 253.534 513.083 253.435Z" fill="#F1F5F9"/>
<path d="M573.233 252.525H572.933C570.646 255.899 567.223 257.582 562.663 257.575C558.396 257.575 555.063 256.092 552.663 253.125C550.263 250.159 549.076 245.945 549.103 240.485C549.103 235.025 550.296 230.782 552.683 227.755C553.868 226.257 555.394 225.064 557.133 224.274C558.872 223.485 560.775 223.121 562.683 223.215C567.123 223.215 570.526 224.849 572.893 228.115H573.283L573.073 225.725L572.953 223.405V209.915H577.953V256.965H573.953L573.233 252.525ZM563.323 253.375C566.703 253.375 569.153 252.435 570.683 250.575C572.213 248.715 572.963 245.695 572.963 241.575V240.515C572.963 235.849 572.193 232.515 570.653 230.515C569.113 228.515 566.65 227.515 563.263 227.515C561.949 227.456 560.642 227.742 559.472 228.343C558.302 228.945 557.31 229.842 556.593 230.945C555.053 233.239 554.283 236.469 554.283 240.635C554.283 244.875 555.053 248.065 556.583 250.225C557.351 251.274 558.372 252.113 559.55 252.663C560.728 253.214 562.025 253.459 563.323 253.375Z" fill="#F1F5F9"/>
<path d="M600.703 257.575C595.876 257.575 592.063 256.082 589.263 253.095C586.463 250.109 585.066 245.982 585.073 240.715C585.073 235.382 586.37 231.139 588.963 227.985C590.224 226.445 591.825 225.217 593.639 224.398C595.454 223.579 597.433 223.192 599.423 223.265C601.248 223.181 603.068 223.506 604.752 224.215C606.435 224.924 607.939 226.001 609.153 227.365C611.546 230.092 612.74 233.695 612.733 238.175V241.355H590.203C590.303 245.249 591.273 248.202 593.113 250.215C594.953 252.215 597.543 253.215 600.883 253.215C604.483 253.201 608.041 252.442 611.333 250.985V255.455C609.728 256.176 608.052 256.729 606.333 257.105C604.477 257.453 602.591 257.61 600.703 257.575ZM599.363 227.425C598.19 227.371 597.019 227.576 595.933 228.025C594.848 228.475 593.875 229.157 593.083 230.025C591.401 232.059 590.432 234.588 590.323 237.225H607.423C607.423 234.055 606.723 231.635 605.333 229.945C604.599 229.095 603.678 228.425 602.642 227.988C601.607 227.551 600.485 227.358 599.363 227.425Z" fill="#F1F5F9"/>
<path d="M653.933 233.805H668.763V255.305C666.461 256.052 664.104 256.617 661.713 256.995C658.97 257.41 656.197 257.604 653.423 257.575C646.816 257.575 641.673 255.575 637.993 251.575C634.313 247.575 632.473 241.995 632.473 234.835C632.379 230.642 633.316 226.491 635.203 222.745C636.953 219.365 639.696 216.601 643.063 214.825C646.777 212.94 650.899 212.002 655.063 212.095C659.529 212.057 663.955 212.942 668.063 214.695L666.063 219.225C662.505 217.633 658.661 216.779 654.763 216.715C649.43 216.715 645.283 218.319 642.323 221.525C639.363 224.732 637.87 229.179 637.843 234.865C637.843 240.865 639.28 245.392 642.153 248.445C645.026 251.499 649.25 253.039 654.823 253.065C657.808 253.071 660.783 252.716 663.683 252.005V238.405H653.933V233.805Z" fill="#F1F5F9"/>
<path d="M690.773 257.575C685.94 257.575 682.126 256.082 679.333 253.095C676.54 250.109 675.143 245.982 675.143 240.715C675.143 235.382 676.44 231.139 679.033 227.985C680.293 226.444 681.893 225.215 683.708 224.396C685.523 223.577 687.503 223.19 689.493 223.265C691.318 223.181 693.138 223.506 694.822 224.215C696.505 224.924 698.009 226.001 699.223 227.365C701.603 230.092 702.796 233.695 702.803 238.175V241.355H680.273C680.373 245.249 681.343 248.202 683.183 250.215C685.023 252.215 687.613 253.215 690.953 253.215C694.55 253.202 698.105 252.443 701.393 250.985V255.455C699.788 256.176 698.112 256.729 696.393 257.105C694.54 257.452 692.657 257.609 690.773 257.575ZM689.433 227.425C688.26 227.371 687.088 227.576 686.003 228.025C684.918 228.475 683.945 229.157 683.153 230.025C681.471 232.059 680.502 234.588 680.393 237.225H697.493C697.493 234.055 696.793 231.635 695.403 229.945C694.667 229.096 693.746 228.428 692.711 227.991C691.676 227.554 690.555 227.36 689.433 227.425Z" fill="#F1F5F9"/>
<path d="M730.813 247.925C730.882 249.304 730.608 250.678 730.014 251.924C729.421 253.171 728.527 254.25 727.413 255.065C725.146 256.732 721.963 257.569 717.863 257.575C713.523 257.575 710.143 256.879 707.723 255.485V250.835C709.331 251.653 711.025 252.291 712.773 252.735C714.474 253.185 716.224 253.42 717.983 253.435C720.06 253.558 722.131 253.123 723.983 252.175C724.584 251.81 725.088 251.305 725.451 250.703C725.814 250.101 726.026 249.42 726.068 248.718C726.111 248.016 725.982 247.314 725.694 246.673C725.406 246.031 724.966 245.47 724.413 245.035C722.42 243.658 720.246 242.564 717.953 241.785C715.692 241.012 713.517 240.006 711.463 238.785C710.297 238.051 709.317 237.054 708.603 235.875C707.947 234.679 707.623 233.329 707.663 231.965C707.624 230.713 707.901 229.471 708.469 228.354C709.037 227.237 709.878 226.281 710.913 225.575C713.083 224.015 716.053 223.225 719.833 223.225C723.386 223.234 726.9 223.976 730.153 225.405L728.393 229.485C725.584 228.221 722.552 227.525 719.473 227.435C717.634 227.317 715.797 227.704 714.163 228.555C713.613 228.858 713.156 229.305 712.841 229.847C712.526 230.39 712.364 231.008 712.373 231.635C712.348 232.444 712.583 233.239 713.043 233.905C713.631 234.646 714.371 235.253 715.213 235.685C717.061 236.632 718.973 237.45 720.933 238.135C724.813 239.575 727.436 241.019 728.803 242.465C730.163 243.951 730.885 245.912 730.813 247.925Z" fill="#F1F5F9"/>
<path d="M747.933 253.435C748.784 253.436 749.633 253.369 750.473 253.235C751.127 253.137 751.775 253 752.413 252.825V256.715C751.656 257.039 750.859 257.257 750.043 257.365C749.111 257.526 748.168 257.613 747.223 257.625C740.89 257.625 737.726 254.249 737.733 247.495V227.715H733.043V225.295L737.733 223.205L739.823 216.135H742.683V223.815H752.173V227.715H742.683V247.225C742.575 248.875 743.073 250.507 744.083 251.815C744.564 252.354 745.159 252.78 745.825 253.06C746.491 253.34 747.211 253.468 747.933 253.435Z" fill="#F1F5F9"/>
<path d="M777.503 256.965L776.503 252.255H776.263C774.995 254.024 773.326 255.467 771.393 256.465C769.468 257.262 767.395 257.641 765.313 257.575C762.541 257.736 759.814 256.826 757.693 255.035C755.853 253.342 754.933 250.932 754.933 247.805C754.933 241.139 760.213 237.632 770.773 237.285L776.323 237.105V235.045C776.323 232.445 775.773 230.525 774.673 229.285C773.563 228.045 771.803 227.425 769.373 227.425C766.137 227.557 762.973 228.426 760.123 229.965L758.603 226.125C760.277 225.214 762.057 224.512 763.903 224.035C765.786 223.537 767.725 223.281 769.673 223.275C773.573 223.275 776.463 224.155 778.343 225.915C780.223 227.675 781.163 230.485 781.163 234.345V256.965H777.503ZM773.653 219.375C772.785 219.376 771.928 219.185 771.143 218.815C770.333 218.445 769.533 218.035 768.743 217.575C767.953 217.115 767.203 216.715 766.473 216.335C765.827 215.984 765.108 215.792 764.373 215.775C763.953 215.746 763.533 215.813 763.143 215.971C762.753 216.128 762.404 216.373 762.123 216.685C761.522 217.498 761.119 218.44 760.943 219.435H758.013C758.133 217.358 758.868 215.364 760.123 213.705C760.651 213.041 761.326 212.508 762.094 212.149C762.863 211.789 763.705 211.614 764.553 211.635C765.466 211.637 766.368 211.827 767.203 212.195C768.043 212.56 768.861 212.974 769.653 213.435C770.433 213.885 771.173 214.305 771.893 214.675C772.506 215.018 773.191 215.21 773.893 215.235C774.3 215.265 774.709 215.2 775.087 215.046C775.465 214.891 775.803 214.652 776.073 214.345C776.647 213.512 777.042 212.569 777.233 211.575H780.183C780.061 213.645 779.342 215.635 778.113 217.305C777.582 217.973 776.902 218.508 776.128 218.867C775.353 219.227 774.506 219.401 773.653 219.375ZM766.313 253.435C767.634 253.51 768.956 253.32 770.203 252.877C771.45 252.434 772.595 251.747 773.573 250.855C774.484 249.903 775.189 248.773 775.644 247.536C776.098 246.299 776.292 244.981 776.213 243.665V240.665L771.263 240.885C767.323 241.025 764.483 241.642 762.743 242.735C761.887 243.277 761.194 244.04 760.734 244.942C760.275 245.845 760.067 246.855 760.133 247.865C760.079 248.633 760.198 249.403 760.48 250.12C760.762 250.836 761.2 251.48 761.763 252.005C763.052 253.026 764.672 253.536 766.313 253.435Z" fill="#F1F5F9"/>
<path d="M818.073 240.365C818.073 245.765 816.74 249.985 814.073 253.025C811.406 256.065 807.693 257.582 802.933 257.575C800.191 257.625 797.491 256.901 795.143 255.485C792.834 254.054 791.005 251.964 789.893 249.485C788.597 246.62 787.961 243.499 788.033 240.355C788.033 234.955 789.366 230.749 792.033 227.735C794.7 224.722 798.4 223.212 803.133 223.205C805.182 223.116 807.224 223.485 809.112 224.286C810.999 225.087 812.684 226.3 814.043 227.835C816.736 230.935 818.08 235.112 818.073 240.365ZM793.163 240.365C793.163 244.605 793.996 247.832 795.663 250.045C796.587 251.091 797.723 251.928 798.995 252.502C800.268 253.075 801.647 253.372 803.043 253.372C804.439 253.372 805.818 253.075 807.09 252.502C808.363 251.928 809.499 251.091 810.423 250.045C812.096 247.825 812.933 244.599 812.933 240.365C812.933 236.132 812.093 232.932 810.413 230.765C808.733 228.572 806.25 227.479 802.963 227.485C799.723 227.485 797.283 228.565 795.623 230.715C793.963 232.865 793.163 236.095 793.163 240.365Z" fill="#F1F5F9"/>
<path d="M861.843 252.525H861.573C859.286 255.899 855.863 257.582 851.303 257.575C847.036 257.575 843.703 256.092 841.303 253.125C838.903 250.159 837.716 245.945 837.743 240.485C837.743 235.025 838.936 230.782 841.323 227.755C842.508 226.257 844.034 225.064 845.773 224.274C847.512 223.485 849.415 223.121 851.323 223.215C855.763 223.215 859.166 224.849 861.533 228.115H861.923L861.713 225.725L861.593 223.405V209.915H866.543V256.965H862.543L861.843 252.525ZM851.933 253.375C855.313 253.375 857.763 252.435 859.293 250.575C860.823 248.715 861.573 245.695 861.573 241.575V240.515C861.573 235.849 860.803 232.515 859.263 230.515C857.723 228.515 855.26 227.515 851.873 227.515C850.559 227.456 849.252 227.742 848.082 228.343C846.912 228.945 845.92 229.842 845.203 230.945C843.663 233.239 842.893 236.469 842.893 240.635C842.893 244.875 843.653 248.065 845.193 250.225C845.961 251.274 846.982 252.113 848.16 252.663C849.338 253.214 850.635 253.459 851.933 253.375Z" fill="#F1F5F9"/>
<path d="M903.733 240.365C903.733 245.765 902.4 249.985 899.733 253.025C897.066 256.065 893.356 257.582 888.603 257.575C885.862 257.624 883.162 256.9 880.813 255.485C878.504 254.054 876.675 251.964 875.563 249.485C874.271 246.619 873.638 243.499 873.713 240.355C873.713 234.955 875.046 230.749 877.713 227.735C880.38 224.722 884.083 223.212 888.823 223.205C890.87 223.116 892.911 223.486 894.797 224.287C896.683 225.088 898.366 226.3 899.723 227.835C902.396 230.935 903.733 235.112 903.733 240.365ZM878.813 240.365C878.813 244.605 879.65 247.832 881.323 250.045C882.246 251.091 883.381 251.928 884.653 252.501C885.924 253.075 887.303 253.371 888.698 253.371C890.093 253.371 891.472 253.075 892.743 252.501C894.015 251.928 895.15 251.091 896.073 250.045C897.753 247.845 898.593 244.615 898.593 240.355C898.593 236.095 897.753 232.895 896.073 230.755C894.393 228.562 891.913 227.469 888.633 227.475C885.383 227.475 882.943 228.555 881.293 230.705C879.643 232.855 878.813 236.095 878.813 240.365Z" fill="#F1F5F9"/>
<path d="M931.983 247.925C932.051 249.304 931.775 250.677 931.182 251.923C930.589 253.169 929.696 254.249 928.583 255.065C926.316 256.732 923.133 257.569 919.033 257.575C914.693 257.575 911.31 256.879 908.883 255.485V250.835C910.492 251.646 912.186 252.276 913.933 252.715C915.634 253.165 917.384 253.4 919.143 253.415C921.22 253.54 923.292 253.105 925.143 252.155C925.743 251.79 926.246 251.285 926.608 250.683C926.971 250.081 927.183 249.401 927.226 248.7C927.269 247.999 927.143 247.298 926.857 246.656C926.57 246.015 926.134 245.452 925.583 245.015C923.589 243.64 921.415 242.546 919.123 241.765C916.861 240.994 914.686 239.988 912.633 238.765C911.464 238.031 910.481 237.035 909.763 235.855C909.112 234.657 908.788 233.308 908.823 231.945C908.786 230.693 909.063 229.451 909.631 228.335C910.199 227.218 911.039 226.262 912.073 225.555C914.243 223.995 917.223 223.205 921.003 223.205C924.556 223.214 928.07 223.956 931.323 225.385L929.563 229.465C926.753 228.202 923.722 227.506 920.643 227.415C918.804 227.297 916.968 227.684 915.333 228.535C914.782 228.836 914.324 229.283 914.008 229.825C913.693 230.368 913.532 230.987 913.543 231.615C913.518 232.424 913.753 233.219 914.213 233.885C914.8 234.624 915.536 235.23 916.373 235.665C918.226 236.609 920.14 237.428 922.103 238.115C925.983 239.555 928.603 240.999 929.963 242.445C931.336 243.932 932.062 245.903 931.983 247.925Z" fill="#F1F5F9"/>
<path d="M978.223 245.205C978.303 246.945 977.965 248.68 977.238 250.263C976.51 251.846 975.415 253.232 974.043 254.305C971.256 256.485 967.476 257.575 962.703 257.575C957.53 257.575 953.55 256.909 950.763 255.575V250.575C952.649 251.37 954.609 251.98 956.613 252.395C958.675 252.83 960.776 253.051 962.883 253.055C966.263 253.055 968.81 252.389 970.523 251.055C971.359 250.427 972.029 249.604 972.476 248.657C972.922 247.711 973.13 246.67 973.083 245.625C973.139 244.311 972.823 243.008 972.173 241.865C971.407 240.733 970.377 239.803 969.173 239.155C967.09 238.043 964.919 237.103 962.683 236.345C958.623 234.879 955.723 233.135 953.983 231.115C952.172 228.892 951.243 226.08 951.373 223.215C951.317 221.657 951.631 220.108 952.29 218.694C952.949 217.281 953.933 216.044 955.163 215.085C957.696 213.085 961.03 212.085 965.163 212.085C969.288 212.033 973.378 212.855 977.163 214.495L975.583 218.975C972.275 217.507 968.703 216.724 965.083 216.675C962.846 216.544 960.628 217.163 958.783 218.435C958.04 219.004 957.446 219.744 957.051 220.592C956.656 221.44 956.471 222.371 956.513 223.305C956.461 224.61 956.75 225.906 957.353 227.065C958.053 228.184 959.023 229.108 960.173 229.755C962.105 230.851 964.138 231.758 966.243 232.465C970.823 234.115 973.963 235.895 975.693 237.785C977.456 239.843 978.362 242.499 978.223 245.205Z" fill="#F1F5F9"/>
<path d="M998.683 257.575C993.856 257.575 990.043 256.082 987.243 253.095C984.443 250.109 983.043 245.965 983.043 240.665C983.043 235.332 984.343 231.089 986.943 227.935C988.203 226.393 989.803 225.164 991.618 224.345C993.433 223.526 995.413 223.139 997.403 223.215C999.226 223.131 1001.05 223.456 1002.73 224.165C1004.41 224.875 1005.91 225.951 1007.12 227.315C1009.51 230.042 1010.71 233.645 1010.71 238.125V241.305H988.183C988.283 245.199 989.253 248.152 991.093 250.165C992.933 252.165 995.523 253.165 998.863 253.165C1002.46 253.152 1006.01 252.393 1009.3 250.935V255.405C1007.7 256.126 1006.02 256.679 1004.3 257.055C1002.45 257.418 1000.57 257.593 998.683 257.575ZM997.343 227.425C996.17 227.371 994.998 227.576 993.913 228.025C992.828 228.474 991.855 229.157 991.063 230.025C989.376 232.056 988.406 234.587 988.303 237.225H1005.39C1005.39 234.055 1004.7 231.635 1003.31 229.945C1002.58 229.096 1001.66 228.428 1000.62 227.991C999.586 227.554 998.465 227.36 997.343 227.425Z" fill="#F1F5F9"/>
<path d="M1032.54 223.215C1033.86 223.205 1035.17 223.329 1036.45 223.585L1035.77 228.235C1034.6 227.957 1033.39 227.806 1032.18 227.785C1030.88 227.785 1029.59 228.079 1028.42 228.645C1027.25 229.211 1026.21 230.035 1025.4 231.055C1023.49 233.323 1022.49 236.22 1022.58 239.185V256.965H1017.58V223.825H1021.67L1022.24 229.965H1022.48C1023.53 227.981 1025.03 226.269 1026.86 224.965C1028.53 223.807 1030.51 223.195 1032.54 223.215Z" fill="#F1F5F9"/>
<path d="M1048.2 256.965L1035.79 223.825H1041.1L1048.1 243.485C1049.69 248.075 1050.63 251.065 1050.91 252.485H1051.15C1051.73 250.237 1052.42 248.021 1053.22 245.845C1054.38 242.512 1056.99 235.179 1061.05 223.845H1066.36L1053.95 256.985L1048.2 256.965Z" fill="#F1F5F9"/>
<path d="M1069.71 214.845C1069.67 214.389 1069.73 213.929 1069.87 213.494C1070.02 213.059 1070.25 212.658 1070.55 212.315C1070.83 212.051 1071.16 211.844 1071.51 211.707C1071.87 211.569 1072.25 211.504 1072.63 211.515C1073.01 211.508 1073.39 211.577 1073.75 211.717C1074.1 211.858 1074.42 212.068 1074.69 212.335C1075.01 212.67 1075.24 213.066 1075.39 213.498C1075.54 213.93 1075.6 214.389 1075.56 214.845C1075.6 215.303 1075.54 215.763 1075.39 216.196C1075.24 216.63 1075 217.028 1074.69 217.365C1074.42 217.635 1074.1 217.848 1073.75 217.991C1073.39 218.133 1073.01 218.203 1072.63 218.195C1072.25 218.207 1071.86 218.14 1071.51 217.997C1071.15 217.854 1070.82 217.639 1070.55 217.365C1070.25 217.023 1070.02 216.624 1069.88 216.191C1069.73 215.758 1069.68 215.3 1069.71 214.845ZM1075.08 256.965H1070.08V223.825H1075.08V256.965Z" fill="#F1F5F9"/>
<path d="M1097.13 257.575C1092.39 257.575 1088.73 256.099 1086.13 253.145C1083.54 250.192 1082.24 246.012 1082.24 240.605C1082.24 235.065 1083.58 230.782 1086.24 227.755C1088.91 224.729 1092.67 223.215 1097.51 223.215C1099.1 223.22 1100.68 223.394 1102.22 223.735C1103.5 223.98 1104.75 224.387 1105.92 224.945L1104.4 229.205C1103.24 228.744 1102.04 228.376 1100.82 228.105C1099.7 227.835 1098.55 227.688 1097.39 227.665C1090.73 227.665 1087.39 231.959 1087.39 240.545C1087.39 244.625 1088.2 247.745 1089.82 249.925C1091.44 252.105 1093.82 253.185 1097.03 253.185C1099.92 253.154 1102.77 252.548 1105.41 251.405V255.845C1102.83 257.085 1099.99 257.679 1097.13 257.575ZM1101.54 265.705C1101.58 266.593 1101.39 267.477 1100.99 268.271C1100.59 269.066 1100 269.745 1099.26 270.245C1097.74 271.319 1095.49 271.852 1092.5 271.845C1091.54 271.85 1090.58 271.76 1089.64 271.575V268.365C1090.67 268.544 1091.7 268.628 1092.74 268.615C1093.96 268.677 1095.18 268.469 1096.31 268.005C1096.71 267.795 1097.04 267.469 1097.26 267.07C1097.48 266.671 1097.57 266.217 1097.52 265.765C1097.52 265.344 1097.41 264.929 1097.21 264.562C1097 264.194 1096.7 263.885 1096.34 263.665C1094.96 262.947 1093.46 262.502 1091.91 262.355L1094.53 256.965H1097.81L1096.17 260.445C1099.75 261.239 1101.54 262.995 1101.54 265.715V265.705Z" fill="#F1F5F9"/>
<path d="M1139.85 240.365C1139.85 245.765 1138.52 249.985 1135.85 253.025C1133.19 256.065 1129.48 257.582 1124.72 257.575C1121.98 257.622 1119.28 256.898 1116.93 255.485C1114.63 254.048 1112.8 251.96 1111.68 249.485C1110.39 246.617 1109.76 243.498 1109.83 240.355C1109.83 234.955 1111.17 230.749 1113.83 227.735C1116.5 224.722 1120.2 223.212 1124.93 223.205C1126.98 223.116 1129.02 223.485 1130.91 224.286C1132.8 225.087 1134.48 226.3 1135.84 227.835C1138.52 230.935 1139.85 235.112 1139.85 240.365ZM1114.93 240.365C1114.93 244.605 1115.77 247.832 1117.44 250.045C1118.37 251.091 1119.5 251.928 1120.78 252.502C1122.05 253.075 1123.43 253.372 1124.82 253.372C1126.22 253.372 1127.6 253.075 1128.87 252.502C1130.14 251.928 1131.28 251.091 1132.2 250.045C1133.88 247.845 1134.72 244.615 1134.72 240.355C1134.72 236.095 1133.88 232.895 1132.2 230.755C1130.52 228.565 1128.03 227.475 1124.75 227.475C1121.47 227.475 1119.06 228.555 1117.41 230.705C1115.76 232.855 1114.93 236.095 1114.93 240.365Z" fill="#F1F5F9"/>
<path d="M1168.1 247.925C1168.17 249.304 1167.9 250.678 1167.3 251.924C1166.71 253.171 1165.82 254.25 1164.7 255.065C1162.44 256.732 1159.25 257.569 1155.15 257.575C1150.82 257.575 1147.43 256.875 1145.01 255.485V250.835C1146.62 251.653 1148.31 252.291 1150.06 252.735C1151.76 253.184 1153.51 253.42 1155.27 253.435C1157.35 253.559 1159.42 253.124 1161.27 252.175C1161.87 251.81 1162.38 251.305 1162.74 250.703C1163.1 250.101 1163.32 249.42 1163.36 248.718C1163.4 248.016 1163.27 247.314 1162.98 246.673C1162.7 246.031 1162.26 245.47 1161.7 245.035C1159.71 243.656 1157.54 242.562 1155.24 241.785C1152.98 241.009 1150.81 240.004 1148.75 238.785C1147.59 238.051 1146.61 237.054 1145.89 235.875C1145.24 234.679 1144.91 233.329 1144.95 231.965C1144.91 230.713 1145.19 229.471 1145.76 228.354C1146.33 227.237 1147.17 226.281 1148.2 225.575C1150.37 224.015 1153.34 223.225 1157.12 223.225C1160.68 223.234 1164.2 223.976 1167.45 225.405L1165.69 229.485C1162.88 228.222 1159.85 227.526 1156.76 227.435C1154.92 227.319 1153.09 227.706 1151.45 228.555C1150.9 228.858 1150.45 229.305 1150.13 229.847C1149.82 230.39 1149.65 231.008 1149.66 231.635C1149.64 232.443 1149.88 233.238 1150.33 233.905C1150.92 234.646 1151.66 235.253 1152.5 235.685C1154.35 236.633 1156.27 237.452 1158.23 238.135C1162.11 239.575 1164.73 241.019 1166.09 242.465C1167.45 243.951 1168.18 245.912 1168.1 247.925Z" fill="#F1F5F9"/>
<path d="M1211.24 252.525H1210.93C1208.65 255.899 1205.23 257.582 1200.67 257.575C1196.39 257.575 1193.06 256.092 1190.67 253.125C1188.29 250.159 1187.1 245.945 1187.11 240.485C1187.11 235.025 1188.31 230.782 1190.69 227.755C1191.88 226.257 1193.4 225.064 1195.14 224.274C1196.88 223.485 1198.79 223.121 1200.69 223.215C1205.13 223.215 1208.53 224.849 1210.89 228.115H1211.28L1211.07 225.725L1210.95 223.405V209.915H1215.95V256.965H1211.95L1211.24 252.525ZM1201.33 253.375C1204.71 253.375 1207.17 252.435 1208.69 250.575C1210.21 248.715 1210.97 245.695 1210.97 241.575V240.515C1210.97 235.849 1210.2 232.515 1208.66 230.515C1207.12 228.515 1204.66 227.515 1201.27 227.515C1199.96 227.457 1198.65 227.743 1197.48 228.345C1196.31 228.946 1195.32 229.843 1194.6 230.945C1193.06 233.239 1192.29 236.469 1192.29 240.635C1192.29 244.875 1193.06 248.065 1194.59 250.225C1195.36 251.274 1196.38 252.113 1197.56 252.663C1198.74 253.214 1200.04 253.459 1201.33 253.375Z" fill="#F1F5F9"/>
<path d="M1253.13 240.365C1253.13 245.765 1251.8 249.985 1249.13 253.025C1246.47 256.065 1242.73 257.582 1237.93 257.575C1235.19 257.624 1232.49 256.9 1230.14 255.485C1227.83 254.054 1226.01 251.964 1224.89 249.485C1223.6 246.617 1222.97 243.498 1223.04 240.355C1223.04 234.955 1224.38 230.749 1227.04 227.735C1229.71 224.722 1233.41 223.212 1238.14 223.205C1240.19 223.116 1242.23 223.486 1244.12 224.287C1246 225.088 1247.69 226.3 1249.04 227.835C1251.77 230.935 1253.13 235.112 1253.13 240.365ZM1228.21 240.365C1228.21 244.605 1229.05 247.832 1230.72 250.045C1231.65 251.091 1232.78 251.928 1234.05 252.501C1235.32 253.075 1236.7 253.371 1238.1 253.371C1239.49 253.371 1240.87 253.075 1242.14 252.501C1243.41 251.928 1244.55 251.091 1245.47 250.045C1247.17 247.845 1248.01 244.615 1248 240.355C1248 236.095 1247.15 232.895 1245.47 230.755C1243.79 228.562 1241.31 227.469 1238.03 227.475C1234.75 227.482 1232.31 228.559 1230.69 230.705C1229.05 232.872 1228.22 236.092 1228.21 240.365Z" fill="#F1F5F9"/>
<path d="M1299.99 245.205C1300.07 246.945 1299.74 248.679 1299.01 250.262C1298.29 251.845 1297.19 253.231 1295.82 254.305C1293.03 256.485 1289.25 257.575 1284.48 257.575C1279.3 257.575 1275.33 256.895 1272.54 255.575V250.575C1274.43 251.372 1276.39 251.981 1278.39 252.395C1280.45 252.83 1282.56 253.051 1284.66 253.055C1288.04 253.055 1290.58 252.405 1292.3 251.055C1293.14 250.427 1293.81 249.604 1294.26 248.657C1294.7 247.711 1294.91 246.67 1294.86 245.625C1294.92 244.311 1294.6 243.008 1293.95 241.865C1293.18 240.735 1292.16 239.806 1290.95 239.155C1288.87 238.043 1286.7 237.103 1284.46 236.345C1280.4 234.879 1277.5 233.135 1275.76 231.115C1273.95 228.892 1273.02 226.08 1273.15 223.215C1273.1 221.657 1273.41 220.108 1274.07 218.694C1274.73 217.281 1275.71 216.044 1276.94 215.085C1279.46 213.085 1282.81 212.085 1286.94 212.085C1291.07 212.034 1295.16 212.855 1298.94 214.495L1297.36 218.975C1294.05 217.506 1290.48 216.723 1286.85 216.675C1284.62 216.545 1282.41 217.165 1280.56 218.435C1279.82 219.004 1279.23 219.744 1278.83 220.592C1278.44 221.44 1278.25 222.371 1278.29 223.305C1278.24 224.61 1278.53 225.907 1279.13 227.065C1279.83 228.188 1280.8 229.115 1281.95 229.755C1283.88 230.853 1285.92 231.76 1288.02 232.465C1292.6 234.112 1295.74 235.885 1297.46 237.785C1299.23 239.843 1300.13 242.499 1299.99 245.205Z" fill="#F1F5F9"/>
<path d="M1340.33 212.715V241.325C1340.33 246.365 1338.83 250.325 1335.83 253.205C1332.83 256.085 1328.7 257.529 1323.44 257.535C1318.2 257.535 1314.13 256.082 1311.25 253.175C1308.37 250.269 1306.94 246.269 1306.94 241.175V212.715H1312.01V241.565C1312.01 245.252 1313.01 248.085 1315.01 250.065C1317.01 252.065 1319.92 253.065 1323.78 253.065C1327.46 253.065 1330.3 252.065 1332.28 250.065C1334.26 248.065 1335.28 245.235 1335.28 241.525V212.715H1340.33Z" fill="#F1F5F9"/>
<path d="M1377.77 256.965L1372.34 242.905H1354.86L1349.49 256.965H1344.35L1361.6 212.575H1365.87L1383.03 256.965H1377.77ZM1370.77 238.275L1365.7 224.585C1365.04 222.845 1364.37 220.715 1363.7 218.195C1363.2 220.36 1362.57 222.493 1361.82 224.585L1356.69 238.275H1370.77Z" fill="#F1F5F9"/>
<path d="M1412.11 245.205C1412.19 246.945 1411.86 248.679 1411.13 250.262C1410.41 251.845 1409.31 253.231 1407.94 254.305C1405.16 256.485 1401.38 257.575 1396.6 257.575C1391.42 257.575 1387.45 256.895 1384.66 255.575V250.575C1386.55 251.372 1388.51 251.981 1390.51 252.395C1392.57 252.83 1394.68 253.051 1396.78 253.055C1400.16 253.055 1402.71 252.389 1404.41 251.055C1405.25 250.429 1405.93 249.607 1406.37 248.66C1406.82 247.713 1407.03 246.671 1406.98 245.625C1407.04 244.311 1406.72 243.008 1406.07 241.865C1405.3 240.735 1404.28 239.806 1403.07 239.155C1400.99 238.043 1398.82 237.103 1396.58 236.345C1392.52 234.879 1389.62 233.135 1387.88 231.115C1386.07 228.892 1385.14 226.08 1385.27 223.215C1385.22 221.657 1385.53 220.108 1386.19 218.694C1386.85 217.281 1387.83 216.044 1389.06 215.085C1391.58 213.085 1394.93 212.085 1399.06 212.085C1403.19 212.034 1407.28 212.855 1411.06 214.495L1409.48 218.975C1406.16 217.514 1402.57 216.745 1398.93 216.715C1396.7 216.585 1394.49 217.205 1392.64 218.475C1391.9 219.044 1391.31 219.784 1390.91 220.632C1390.52 221.48 1390.33 222.411 1390.37 223.345C1390.32 224.65 1390.61 225.947 1391.21 227.105C1391.91 228.228 1392.88 229.155 1394.03 229.795C1395.96 230.893 1398 231.8 1400.1 232.505C1404.67 234.152 1407.82 235.925 1409.54 237.825C1411.31 239.867 1412.23 242.507 1412.11 245.205Z" fill="#F1F5F9"/>
<path d="M147.413 167.645L112.803 133.035C105.156 125.391 94.7857 121.097 83.973 121.097C73.1603 121.097 62.7903 125.391 55.143 133.035L20.533 167.645C12.8962 175.296 8.60706 185.665 8.60706 196.475C8.60706 207.286 12.8962 217.654 20.533 225.305L41.453 246.215L55.143 259.905C58.9161 263.697 63.4028 266.705 68.3441 268.754C73.2854 270.803 78.5836 271.854 83.933 271.845C84.493 271.845 85.033 271.845 85.573 271.845C95.8177 271.471 105.537 267.217 112.763 259.945L147.373 225.345C148.682 224.044 149.895 222.651 151.003 221.175C155.903 214.735 175.113 196.575 175.113 196.575C175.113 196.575 156.093 176.345 147.413 167.645ZM124.533 202.435L89.933 237.035C89.5265 237.445 89.0773 237.811 88.593 238.125L88.083 238.425C87.994 238.483 87.9004 238.533 87.803 238.575C87.6524 238.661 87.4952 238.734 87.333 238.795L86.933 238.965L86.763 239.025H86.633H86.513C86.3792 239.074 86.2422 239.115 86.103 239.145H85.923L85.633 239.205C85.4033 239.264 85.1692 239.304 84.933 239.325H84.543C84.3532 239.336 84.1629 239.336 83.973 239.325C82.8327 239.328 81.7048 239.089 80.663 238.625C79.6806 238.215 78.7899 237.614 78.043 236.855L58.693 217.715L43.403 202.435C41.8275 200.852 40.9431 198.709 40.9431 196.475C40.9431 194.242 41.8275 192.099 43.403 190.515L78.023 155.905C78.8043 155.122 79.7324 154.5 80.7543 154.076C81.7762 153.652 82.8716 153.434 83.978 153.434C85.0844 153.434 86.1799 153.652 87.2018 154.076C88.2236 154.5 89.1518 155.122 89.933 155.905L124.533 190.515C125.948 191.923 126.813 193.789 126.975 195.778C127.136 197.767 126.582 199.748 125.413 201.365C125.158 201.752 124.863 202.11 124.533 202.435Z" fill="#F1F5F9"/>
<path d="M174.583 104.955C193.007 104.955 207.943 90.0194 207.943 71.5952C207.943 53.171 193.007 38.2352 174.583 38.2352C156.159 38.2352 141.223 53.171 141.223 71.5952C141.223 90.0194 156.159 104.955 174.583 104.955Z" fill="#F1F5F9"/>
<path d="M84.1329 104.955C102.557 104.955 117.493 90.0194 117.493 71.5952C117.493 53.171 102.557 38.2352 84.1329 38.2352C65.7087 38.2352 50.7729 53.171 50.7729 71.5952C50.7729 90.0194 65.7087 104.955 84.1329 104.955Z" fill="#F1F5F9"/>
<path d="M122.013 213.495C130.132 213.495 136.713 205.902 136.713 196.535C136.713 187.168 130.132 179.575 122.013 179.575C113.894 179.575 107.313 187.168 107.313 196.535C107.313 205.902 113.894 213.495 122.013 213.495Z" fill="#F1F5F9"/>
<path d="M83.533 196.535C83.533 196.535 102.743 214.695 107.653 221.135C108.758 222.613 109.972 224.007 111.283 225.305L145.883 259.905C153.109 267.177 162.828 271.431 173.073 271.805C173.613 271.805 174.153 271.805 174.713 271.805C180.069 271.819 185.375 270.771 190.323 268.722C195.272 266.672 199.765 263.662 203.543 259.865L217.233 246.215L238.153 225.305C245.79 217.654 250.079 207.286 250.079 196.475C250.079 185.665 245.79 175.296 238.153 167.645L203.543 133.035C195.896 125.391 185.526 121.097 174.713 121.097C163.9 121.097 153.53 125.391 145.883 133.035L111.283 167.645C102.593 176.345 83.533 196.535 83.533 196.535ZM133.273 201.365C132.104 199.748 131.55 197.767 131.711 195.778C131.873 193.789 132.738 191.923 134.153 190.515L168.753 155.905C169.534 155.122 170.462 154.5 171.484 154.076C172.506 153.652 173.602 153.434 174.708 153.434C175.814 153.434 176.91 153.652 177.932 154.076C178.954 154.5 179.882 155.122 180.663 155.905L215.283 190.515C216.858 192.099 217.743 194.242 217.743 196.475C217.743 198.709 216.858 200.852 215.283 202.435L200.003 217.715L180.663 237.035C179.083 238.599 176.956 239.485 174.733 239.505C174.543 239.516 174.353 239.516 174.163 239.505H173.773C173.537 239.484 173.303 239.444 173.073 239.385L172.783 239.325H172.603C172.467 239.296 172.333 239.256 172.203 239.205H172.073H171.943L171.773 239.145L171.373 238.975C171.211 238.914 171.054 238.841 170.903 238.755C170.806 238.713 170.712 238.663 170.623 238.605C170.453 238.505 170.283 238.415 170.123 238.305C169.634 237.994 169.181 237.628 168.773 237.215L134.173 202.615C133.826 202.235 133.524 201.815 133.273 201.365Z" fill="#F1F5F9"/>
</g>
<defs>
<clipPath id="clip0_293_1151">
<rect width="1429.55" height="277.695" fill="white"/>
</clipPath>
</defs>
</svg>
