<svg viewBox="158.067 116.28474576271186 1429.551 277.6949152542373" xmlns:xlink="http://www.w3.org/1999/xlink" xmlns="http://www.w3.org/2000/svg" data-name="Camada 1" id="Camada_1" style="max-height: 500px" width="1429.551" height="277.6949152542373"><defs><style>.cls-1{fill:none;}.cls-2{clip-path:url(#clip-path);}.cls-3{fill:#2f3c22;}.cls-4{fill:#fff;}.cls-5{fill:#b7bfaa;}</style><clipPath id="clip-path"><rect height="1076" width="1920" y="-1264" x="-1413" class="cls-1"/></clipPath></defs><g class="cls-2"><path d="M-1628.3-413.81c178.44-30.29,344.27-58.31,511.11-62.2,378.81-8.85,716.48,110.39,927.13,247.77,79.76,52,147.55,108.42,224.82,147.48C107.41-44,192.53-24.49,260.82-47.24c50.35-16.78,85.23-54,127.34-77.56,50.8-28.43,111.83-35.56,165.53-21,61.35,16.58,110.75,59.19,164.77,76C770-53.75,823.07-67.75,861.8-98.62c22-17.48,40-39.95,56.44-63a732.23,732.23,0,0,0,54.15-88.87L951.11,65.24,439,68.53-82.94,289.11Z" class="cls-3"/><path d="M-1540.29-380.45c303.65-52.44,617-37.24,864,27.75,286.89,75.48,435.92,207.31,550.86,350,32.15,39.91,60.62,81,102.62,111.59,87.43,63.58,224.63,63.91,307.93,8.39,21-14,38.82-30.93,57.19-46.62C402.91,18.83,472.09-20.54,543.52-30.79,644.38-45.25,741.36-1.22,819.2-35.32c29.42-12.89,53.61-36.12,74.61-60.85A510.34,510.34,0,0,0,977-234L955.39,87.31,474.78,113.67,5.1,329.86-635.16,156.8Z" class="cls-4"/><path d="M-1487.84-350.77c275.63,6.06,519.47,86.46,689.88,177,154.14,82,265.71,176.2,377.57,257.38,103.62,75.2,211.72,140.88,334.74,165.62C31,272.74,154,255.46,246.73,207.61,358.94,149.72,432.32,47.83,535,19.57c128-35.21,229.13,60.7,329.57,37.3A146.3,146.3,0,0,0,955.46-8.45,161.72,161.72,0,0,0,971.6-43.36l-17.11,253.9c-33.26,21.11-74.6,28.06-111.75,19.58-38.9-8.88-76.22-28.23-116-46C633.63,142.74,544,110.89,451,169.38c-38.54,24.23-71.93,55.73-108.77,82.48C186.87,364.64-9,371.88-186.59,315c-92.12-29.51-181.7-68.67-277.49-85.3-111.62-19.38-226.9-6.94-336.66,21.1-116.35,29.72-235.67,73.36-345,121.84-12.33,5.47-73.59,44.41-83.72,40.28-17.23-7-24.73-26.84-30.38-44.57q-35.45-111.19-70.88-222.39c-6.2-19.43-12.39-38.87-17.51-58.61-2.25-8.67-4.32-17.48-8.26-25.53-3.82-7.8-9.29-14.65-14.65-21.48A1303.3,1303.3,0,0,1-1474-111.9c-21-36.36-40.82-76-45.6-118.31C-1524.77-276.06-1506.63-310.45-1487.84-350.77Z" class="cls-5"/><path d="M1025,172.93l-6.64,2.79c-2.22.87-4.85,2.18-8.2,3.31l-11.68,3.91c-4.47,1.2-9.5,2.48-15.06,3.76l-8.81,1.6c-1.53.26-3.1.58-4.7.82l-4.92.58a267.65,267.65,0,0,1-46.24,1.78c-34.71-1.2-76.36-9.14-122.62-21.52-23.16-6.13-47.62-12.29-73.69-17.53s-53.65-9-82.41-9.18a262.89,262.89,0,0,0-87.76,13.49,110.66,110.66,0,0,0-10.86,4l-10.86,4.32-10.63,5.1-5.35,2.56-1.24.6-1.35.73-2.69,1.46c-3.62,1.95-7.22,3.92-10.63,5.95l-5.21,3-5.21,3.2c-3.5,2.11-6.95,4.34-10.41,6.59s-6.91,4.53-10.37,6.85c-13.8,9.29-27.46,19.31-41.1,29.79S398.92,252.13,385,263l-21.15,16.39-21.83,16c-7.53,5.17-15.23,10.23-22.89,15.37-7.87,4.76-15.73,9.62-23.72,14.31C231,361.86,156.9,387,79.37,393l-14.55.83c-4.85.26-9.71.66-14.58.57l-14.63.07c-2.44,0-4.88.07-7.32,0L21,394.16l-14.66-.63-3.67-.16L-1,393l-7.31-.69L-23,391c-5-.61-9.71-1.35-14.58-2l-7.26-1c-2.42-.34-4.86-.84-7.28-1.26l-14.6-2.61-14.44-3.17-7.22-1.6-7.16-1.89-14.31-3.81L-124,369.29c-4.75-1.37-9.4-3-14.08-4.64s-9.38-3.12-14-4.93c-18.56-6.79-36.73-14.58-54.68-22.78-17.83-8.43-35.47-17.23-52.73-26.6s-34.27-19.08-51-29c-8.42-4.92-16.71-10-25-15l-1.56-.94-1.42-.82-3.15-1.82-6.29-3.62c-4.2-2.53-8.35-4.53-12.52-6.72a480.72,480.72,0,0,0-51.79-22.84c-17.68-6.56-35.6-12.26-53.62-17.26A864.78,864.78,0,0,0-574.5,190.38c-4.51-.6-9-1.29-13.51-1.8L-601.29,187l-27.11-2.5-6.73-.64-6.39-.39-13.42-.77c-8.91-.47-17.55-.53-26.26-.82-8.74,0-17.44,0-26.08.14-8.64.34-17.24.41-25.77,1s-17,.83-25.42,1.67L-771,185.72c-4.18.34-8.32.92-12.46,1.37a811.38,811.38,0,0,0-182.6,42.71c-3.42,1.25-6.86,2.4-10.23,3.69l-10,3.89-19.86,7.77c-6.53,2.6-13,5.14-19.52,7.55s-12.88,4.89-19.2,7.14c-25.25,9.3-49.4,17.36-72,25.19-45.19,15.5-84.17,29.87-115.63,43.3S-1288,353.9-1304,362.91c-4.07,2.12-7.55,4.19-10.56,6l-7.59,4.47-6.2,3.66-1-1.46,6-4,7.36-4.91c2.92-2,6.3-4.24,10.26-6.6,15.59-9.85,39.21-23.16,70.28-38.07,3.86-1.92,7.89-3.73,12-5.62l12.7-5.76c8.76-3.69,17.87-7.74,27.49-11.61,19.17-8,40.09-16,62.43-24.58s46.1-17.57,71-27.3c6.25-2.4,12.48-5,18.81-7.51s12.73-5.2,19.22-8l19.73-8.27,10.12-4.2c3.4-1.41,6.88-2.65,10.34-4a803.7,803.7,0,0,1,88.35-28A786.83,786.83,0,0,1-785.65,169c4.23-.5,8.46-1.13,12.73-1.52l12.86-1.23c8.59-.93,17.28-1.33,26-2,4.36-.35,8.75-.47,13.15-.59l13.24-.41c8.85-.17,17.75-.08,26.71-.11,9,.31,18.13.41,27.08.89l13.43.79,3.36.2,1.69.09.84,0,1.19.11,6.73.64,27.09,2.68,13.91,1.83c4.58.58,9.15,1.34,13.73,2a885,885,0,0,1,110.57,23.61c36.76,10.7,73.38,24,108.19,42.71,4.34,2.37,8.85,4.67,12.9,7.2l6.22,3.73,3.12,1.86,3.24,2L-303,268.93q24.67,15.4,49.93,30c16.81,9.77,33.94,19,51.28,27.83,17.44,8.6,35.11,16.82,53.19,24,4.48,1.91,9.09,3.46,13.63,5.21s9.1,3.46,13.74,4.93l13.84,4.62,14,4.12,7,2,7.07,1.76,14.15,3.5L-51,379.89c2.38.47,4.73,1,7.13,1.43l7.24,1.16c4.79.73,9.71,1.57,14.4,2.21l14.46,1.58,7.22.8,3.61.39,3.62.22,14.49.83,7.23.4c2.41.1,4.83,0,7.24,0H50.14c4.82.12,9.62-.27,14.42-.49L79,387.72c9.56-.89,19.1-1.86,28.57-3.12l14.12-2.35c4.71-.77,9.41-1.51,14-2.63,9.27-2.12,18.6-3.88,27.66-6.62L177,369.14c4.51-1.38,8.94-3,13.4-4.49,35.63-12.06,69.14-28.54,100.21-47.6,7.7-4.88,15.27-9.9,22.84-14.82,7.31-5.27,14.62-10.4,21.83-15.68L356.37,270l20.53-17c13.59-11.31,27-22.62,40.57-33.5s27.33-21.27,41.32-31q10.48-7.35,21.27-14l5.38-3.33,5.5-3.22c3.67-2.19,7.28-4.18,10.86-6.13l2.69-1.47,1.35-.74,1.51-.74,5.65-2.74,11.24-5.43c3.83-1.59,7.69-3.07,11.53-4.57A121.72,121.72,0,0,1,547.33,142a278.18,278.18,0,0,1,92.88-13.55c30.1.65,58.51,5.19,85,10.87l19.52,4.49,18.82,4.88,18.19,5,17.5,5c22.93,6.67,44.36,12.44,64.42,16.79a455.44,455.44,0,0,0,55.59,8.65,262.33,262.33,0,0,0,45.25.4l4.85-.34c1.58-.16,3.11-.4,4.63-.59l8.7-1.15c5.5-1,10.47-2.06,15-2.92l11.62-3.1c3.35-.9,6.11-2.06,8.36-2.79l6.8-2.37Z" class="cls-4"/></g><path d="M463.86,179.75a70.37,70.37,0,0,1,10.85-1.47c3.34-.16,6.22-.24,8.66-.24,3.25,0,6.51.08,9.76.24a51.3,51.3,0,0,1,9,1.22l27.56,93.92L556.8,179.5c2.76-.49,5.69-.85,8.78-1.1s6.18-.36,9.27-.36q3.66,0,8.42.24a75.93,75.93,0,0,1,10.85,1.47L546.31,305.62a91.3,91.3,0,0,1-9.76,1c-3.41.16-6.26.24-8.53.24q-3.66,0-8.3-.24a51.33,51.33,0,0,1-8.78-1.22Z"/><path d="M612.18,253.17q1,14.64,10.24,21.22t24.4,6.59a93.84,93.84,0,0,0,16.95-1.58,96.78,96.78,0,0,0,16.47-4.52,57.37,57.37,0,0,1,4.63,11.71,60.44,60.44,0,0,1,2.2,14.64q-19,7.32-42.94,7.32-17.57,0-30.13-4.88a53.55,53.55,0,0,1-20.49-13.54,54.36,54.36,0,0,1-11.71-20.61A86.21,86.21,0,0,1,578,243.41a85,85,0,0,1,3.91-26.1,61,61,0,0,1,11.58-21.22,55.05,55.05,0,0,1,19-14.27q11.34-5.25,26.47-5.25a56.27,56.27,0,0,1,23.42,4.64,51.71,51.71,0,0,1,17.44,12.68A53.51,53.51,0,0,1,690.72,213a75.56,75.56,0,0,1,3.66,23.79q0,4.63-.36,9.15c-.25,3-.53,5.4-.86,7.19ZM661.7,229q-.5-11.7-6.47-18.9t-16.71-7.2q-12.19,0-18.54,6.83T612.42,229Z"/><path d="M698.77,179.5c2.44-.49,4.76-.85,7-1.1a66.33,66.33,0,0,1,7.19-.36,51.93,51.93,0,0,1,7.2.49q3.52.48,7,1.22a13.68,13.68,0,0,1,1.34,3.53c.41,1.55.77,3.17,1.1,4.88s.61,3.42.85,5.12.45,3.14.61,4.27A63,63,0,0,1,744.15,184q7.8-6,19.51-6,2.45,0,5.61.24a22.09,22.09,0,0,1,4.64.73,48.23,48.23,0,0,1,.73,5.61q.24,3.18.24,6.59,0,4.15-.36,9a67.78,67.78,0,0,1-1.34,9.27,33.26,33.26,0,0,0-6-.49h-4a56.84,56.84,0,0,0-9.27.85,21.3,21.3,0,0,0-9.75,4.52q-4.64,3.65-7.69,11t-3.05,20.49v60a79.12,79.12,0,0,1-8.78,1c-2.93.16-5.77.24-8.54.24s-5.57-.08-8.41-.24a88.76,88.76,0,0,1-8.91-1Z"/><path d="M956.81,221.74a20.18,20.18,0,0,0-2-9.51,14.59,14.59,0,0,0-5.36-5.73,22.46,22.46,0,0,0-8.42-2.81A76.67,76.67,0,0,0,930,203a86.45,86.45,0,0,0-28.05,5.12,64.9,64.9,0,0,1-5.12-12,46.34,46.34,0,0,1-1.71-13.42,129.39,129.39,0,0,1,21.47-5.36,127.52,127.52,0,0,1,20-1.71q25.37,0,39.64,12.2t14.27,39v73.18a201.66,201.66,0,0,1-20.74,5.12,141.72,141.72,0,0,1-27.56,2.44,110.53,110.53,0,0,1-22.81-2.19,49.14,49.14,0,0,1-17.81-7.32,34.46,34.46,0,0,1-11.46-13.18q-4-8-4-19.75t5-19.64A38.54,38.54,0,0,1,904,232.84,57.35,57.35,0,0,1,921.68,226a93.75,93.75,0,0,1,19.51-2.07q7.08,0,15.62.73Zm0,25.13c-2-.32-4.07-.61-6.35-.85a56.44,56.44,0,0,0-6.1-.37q-12,0-18.9,4.27t-7,13.78q0,6.35,2.68,9.76a16,16,0,0,0,6.46,5,26.38,26.38,0,0,0,8.05,2c2.85.24,5.33.37,7.44.37a44.09,44.09,0,0,0,7.32-.61c2.44-.41,4.55-.77,6.35-1.1Z"/><path d="M831.15,309.63c-33.17,0-56.32-19.33-57.75-43.91h33.65c1.19,10,10.5,17.66,23.87,17.66,13.12,0,20.28-6,20.28-13.6,0-23.63-74.7-8.6-74.7-57,0-22,19.57-39.62,52.27-39.62,32,0,51.31,17.42,53.22,43.67H850c-1-10.26-9.07-17.18-22.2-17.18-12.41,0-18.85,5-18.85,12.65,0,24.1,73.27,9.07,74.22,57.52C883.18,292.45,863.37,309.63,831.15,309.63Z"/><path d="M1462.11,222.29a20.39,20.39,0,0,0-2-9.63,14.74,14.74,0,0,0-5.43-5.8,22.64,22.64,0,0,0-8.51-2.83,77.13,77.13,0,0,0-11.23-.74,87.25,87.25,0,0,0-28.39,5.18,66.09,66.09,0,0,1-5.18-12.1,46.59,46.59,0,0,1-1.73-13.57,133.83,133.83,0,0,1,42-7.16q25.67,0,40.11,12.34t14.44,39.5v74a204.37,204.37,0,0,1-21,5.18,143.33,143.33,0,0,1-27.89,2.47,111.62,111.62,0,0,1-23.08-2.22,49.37,49.37,0,0,1-18-7.41,34.78,34.78,0,0,1-11.6-13.33q-4.08-8.14-4.08-20t5.07-19.87a39,39,0,0,1,13.08-12.84,57.8,57.8,0,0,1,17.89-6.91,95.39,95.39,0,0,1,19.75-2.1q7.15,0,15.8.74Zm0,25.43q-3-.5-6.42-.87a60.55,60.55,0,0,0-6.17-.37q-12.11,0-19.13,4.32t-7,13.95q0,6.42,2.72,9.87a16.16,16.16,0,0,0,6.54,5.06,27,27,0,0,0,8.15,2c2.87.24,5.38.37,7.53.37a45.16,45.16,0,0,0,7.4-.62q3.7-.62,6.42-1.11Z" class="cls-3"/><path d="M1054.84,308.7c-33.17,0-56.32-19.33-57.76-43.92h33.66c1.19,10,10.5,17.66,23.86,17.66,13.13,0,20.29-6,20.29-13.6,0-23.63-74.7-8.59-74.7-57,0-22,19.57-39.62,52.26-39.62,32,0,51.32,17.42,53.23,43.68h-32c-1-10.27-9.07-17.19-22.19-17.19-12.41,0-18.86,5-18.86,12.65,0,24.11,73.27,9.07,74.23,57.52C1106.87,291.51,1087.06,308.7,1054.84,308.7Z" class="cls-3"/><path d="M1329.8,274.39a50.18,50.18,0,0,1,5,11.42,52.3,52.3,0,0,1,2,15.36,78.92,78.92,0,0,1-18.78,5,145.6,145.6,0,0,1-18.28,1.11q-16.27,0-28.29-5a54.12,54.12,0,0,1-19.9-13.88,58.7,58.7,0,0,1-11.9-21,89.25,89.25,0,0,1-.12-52.45,59.79,59.79,0,0,1,11.77-21.13A54.49,54.49,0,0,1,1271,179.57q11.76-5.16,27.29-5.16,5.51,0,10.14.24a77.22,77.22,0,0,1,8.89,1,82.23,82.23,0,0,1,8.51,2q4.26,1.23,9.51,3.19a61,61,0,0,1-1.5,12.66,54.46,54.46,0,0,1-4.76,13.38,84,84,0,0,0-13.14-3.31,85.41,85.41,0,0,0-12.89-.86q-15.54,0-23.41,10T1271.72,241q0,19.91,8.51,29t23,9.09q3.75,0,6.88-.13a49.14,49.14,0,0,0,6.13-.61,45.45,45.45,0,0,0,6.14-1.47C1324.5,276.19,1327,275.37,1329.8,274.39Z" class="cls-3"/><path d="M1347.63,206.42s-.07-20.77-.07-26.22l8.35-.76a96.51,96.51,0,0,1,20.39.06l8.35.91V304.93a125.49,125.49,0,0,1-18.64,1.44,123.83,123.83,0,0,1-18.38-1.44Zm-.36-47a85.32,85.32,0,0,1-1.57-16.14,88,88,0,0,1,1.57-16.14q4.47-.72,9.58-1.08t9.31-.36q4.46,0,9.71.36t9.7,1.08a67.86,67.86,0,0,1,1,8.07q.26,4,.26,8.07,0,3.85-.26,8a67.45,67.45,0,0,1-1,8.19,85.33,85.33,0,0,1-9.57,1c-3.41.16-6.61.24-9.58.24-2.8,0-5.94-.08-9.44-.24A85.81,85.81,0,0,1,1347.27,159.46Z" class="cls-3"/><path d="M1503.24,125.36a123.23,123.23,0,0,1,18.9-1.49,121.66,121.66,0,0,1,18.63,1.49V256.3a67.1,67.1,0,0,0,.93,12.47,17.65,17.65,0,0,0,2.93,7.36,10.13,10.13,0,0,0,5.19,3.62,27.07,27.07,0,0,0,8,1c1.42,0,3-.09,4.66-.25a48.1,48.1,0,0,0,4.92-.75,72.41,72.41,0,0,1,2.93,19.95v3.62a14.26,14.26,0,0,1-.53,3.61,51.6,51.6,0,0,1-10.25,1.75c-4,.33-7.68.5-11,.5q-20.51,0-32.88-10.6T1503.24,264Z" class="cls-3"/><path d="M1170.2,308.24q-15.71,0-27.28-5.1a51.81,51.81,0,0,1-19.18-14.2,61.76,61.76,0,0,1-11.46-21.3,87,87,0,0,1-3.86-26.41,89.3,89.3,0,0,1,3.86-26.65A61.42,61.42,0,0,1,1123.74,193a53,53,0,0,1,19.18-14.33q11.58-5.23,27.28-5.23t27.4,5.23A54,54,0,0,1,1217,193a58.93,58.93,0,0,1,11.46,21.55,92.29,92.29,0,0,1,3.74,26.65,89.86,89.86,0,0,1-3.74,26.41,59.2,59.2,0,0,1-11.46,21.3,52.81,52.81,0,0,1-19.43,14.2Q1185.89,308.24,1170.2,308.24Zm0-26.9q14,0,20-10.34t6.1-29.77q0-19.42-6.1-29.77t-20-10.34q-13.71,0-19.81,10.34t-6.1,29.77q0,19.43,6.1,29.77T1170.2,281.34Z" class="cls-3"/><path d="M505.91,361.49a10.89,10.89,0,0,1-4.18,9.1c-2.79,2.18-6.56,3.27-11.34,3.27q-7.75,0-11.93-2v-5a31.18,31.18,0,0,0,5.84,1.82,30.65,30.65,0,0,0,6.27.66q5.07,0,7.64-2a6.44,6.44,0,0,0,2.57-5.43,7,7,0,0,0-.92-3.76,8.46,8.46,0,0,0-3-2.71,42.79,42.79,0,0,0-6.49-2.81q-6.09-2.2-8.7-5.23a11.67,11.67,0,0,1-2.61-7.9,9.89,9.89,0,0,1,3.79-8.13q3.79-3,10-3a29.25,29.25,0,0,1,12,2.41l-1.58,4.48a26.77,26.77,0,0,0-10.5-2.3,10.06,10.06,0,0,0-6.3,1.76,5.81,5.81,0,0,0-2.27,4.87,7.5,7.5,0,0,0,.84,3.76,7.89,7.89,0,0,0,2.82,2.69,34.71,34.71,0,0,0,6.07,2.71q6.87,2.47,9.45,5.32A10.57,10.57,0,0,1,505.91,361.49Z"/><path d="M512.14,331.13a3.41,3.41,0,0,1,.83-2.53,2.93,2.93,0,0,1,2.09-.8,2.88,2.88,0,0,1,2.06.82,3.28,3.28,0,0,1,.87,2.51,3.32,3.32,0,0,1-.87,2.52,3,3,0,0,1-4.15,0A3.43,3.43,0,0,1,512.14,331.13Zm5.37,42.12h-5V340.11h5Z"/><path d="M547.58,364.21a8.33,8.33,0,0,1-3.4,7.14q-3.4,2.5-9.55,2.51-6.51,0-10.14-2.09v-4.65a24.38,24.38,0,0,0,5,1.9,21.07,21.07,0,0,0,5.21.7,11.63,11.63,0,0,0,6-1.26,4.35,4.35,0,0,0,.43-7.14,26.16,26.16,0,0,0-6.46-3.25,34.67,34.67,0,0,1-6.49-3,8.87,8.87,0,0,1-2.86-2.91,7.67,7.67,0,0,1-.94-3.91,7.45,7.45,0,0,1,3.25-6.39c2.17-1.56,5.14-2.35,8.92-2.35a25.9,25.9,0,0,1,10.33,2.18l-1.77,4.08a23.4,23.4,0,0,0-8.92-2.05,10.11,10.11,0,0,0-5.31,1.12,3.46,3.46,0,0,0-1.79,3.08,3.79,3.79,0,0,0,.67,2.27A6.65,6.65,0,0,0,532,352a45.4,45.4,0,0,0,5.72,2.45q5.82,2.16,7.87,4.33A7.68,7.68,0,0,1,547.58,364.21Z"/><path d="M564.67,369.72a17.48,17.48,0,0,0,4.48-.61V373a9.05,9.05,0,0,1-2.37.65,17.89,17.89,0,0,1-2.82.26q-9.5,0-9.49-10.13V344h-4.69v-2.42l4.69-2.09,2.09-7.07h2.86v7.68h9.49V344h-9.49v19.51a6.74,6.74,0,0,0,1.41,4.59A4.82,4.82,0,0,0,564.67,369.72Z"/><path d="M588,373.86q-7.25,0-11.44-4.48T572.34,357q0-8,3.89-12.73a12.88,12.88,0,0,1,10.46-4.72,12.27,12.27,0,0,1,9.73,4.1q3.57,4.09,3.58,10.81v3.18H577.47q.15,5.84,2.91,8.86c1.84,2,4.43,3,7.77,3a26,26,0,0,0,10.44-2.23v4.47a25.49,25.49,0,0,1-5,1.65A27.77,27.77,0,0,1,588,373.86Zm-1.34-30.15a8,8,0,0,0-6.28,2.6,12.08,12.08,0,0,0-2.76,7.2h17.1c0-3.17-.7-5.59-2.09-7.28A7.31,7.31,0,0,0,586.63,343.71Z"/><path d="M648.6,373.25V351.69q0-4-1.67-5.94a6.43,6.43,0,0,0-5.19-2c-3.09,0-5.36.9-6.84,2.69s-2.2,4.56-2.2,8.29v18.5h-5V351.69c0-2.64-.55-4.62-1.67-5.94s-2.85-2-5.22-2c-3.1,0-5.38.94-6.82,2.83s-2.16,5-2.16,9.26v17.39h-5V340.11h4l.81,4.54H612a9.66,9.66,0,0,1,4-3.78,11.94,11.94,0,0,1,5.72-1.37q7.67,0,10,5.63h.24a10.44,10.44,0,0,1,4.24-4.11,13,13,0,0,1,6.32-1.52c3.7,0,6.47,1,8.31,2.89s2.76,5,2.76,9.24v21.62Z"/><path d="M682.34,373.25l-1-4.71h-.24a13.78,13.78,0,0,1-4.88,4.21,14.63,14.63,0,0,1-6.07,1.11,10.87,10.87,0,0,1-7.63-2.54q-2.76-2.54-2.76-7.23,0-10,15.85-10.52l5.55-.18v-2.06q0-3.9-1.66-5.76c-1.1-1.24-2.87-1.86-5.29-1.86a21.24,21.24,0,0,0-9.25,2.54l-1.53-3.84a23.42,23.42,0,0,1,5.3-2.09,22.83,22.83,0,0,1,5.78-.76q5.84,0,8.66,2.64t2.82,8.43v22.62Zm-11.19-3.53a10,10,0,0,0,7.27-2.58,9.57,9.57,0,0,0,2.64-7.19v-3l-4.95.22q-5.91.21-8.52,1.85a5.64,5.64,0,0,0-2.61,5.13,5.19,5.19,0,0,0,1.62,4.14A6.69,6.69,0,0,0,671.15,369.72Z"/><path d="M731.3,368.81H731q-3.43,5.06-10.27,5.05-6.4,0-10-4.45t-3.56-12.64q0-8.19,3.58-12.73a12,12,0,0,1,10-4.54q6.66,0,10.21,4.9h.39l-.21-2.39-.12-2.32V326.2h5v47.05h-4Zm-9.91.85c3.38,0,5.83-.94,7.36-2.8s2.28-4.88,2.28-9v-1.06q0-7-2.31-10t-7.39-3a7.55,7.55,0,0,0-6.67,3.43q-2.31,3.44-2.31,9.69c0,4.24.77,7.43,2.3,9.59A7.74,7.74,0,0,0,721.39,369.66Z"/><path d="M758.77,373.86q-7.24,0-11.44-4.48T743.14,357q0-8,3.89-12.73a12.9,12.9,0,0,1,10.46-4.72,12.27,12.27,0,0,1,9.73,4.1q3.59,4.09,3.58,10.81v3.18H748.27q.15,5.84,2.91,8.86c1.84,2,4.43,3,7.77,3a26.09,26.09,0,0,0,10.45-2.23v4.47a25.57,25.57,0,0,1-5,1.65A27.77,27.77,0,0,1,758.77,373.86Zm-1.34-30.15a8,8,0,0,0-6.28,2.6,12.08,12.08,0,0,0-2.76,7.2h17.1c0-3.17-.7-5.59-2.09-7.28A7.31,7.31,0,0,0,757.43,343.71Z"/><path d="M812,350.09h14.83v21.5a46.36,46.36,0,0,1-7.05,1.69,51.93,51.93,0,0,1-8.29.58q-9.91,0-15.43-6t-5.52-16.74a25.6,25.6,0,0,1,2.73-12.09,18.65,18.65,0,0,1,7.86-7.92,25.27,25.27,0,0,1,12-2.73,32.4,32.4,0,0,1,13,2.6l-2,4.53A28.81,28.81,0,0,0,812.83,333q-8,0-12.44,4.81t-4.48,13.34q0,9,4.31,13.58t12.67,4.62a36.92,36.92,0,0,0,8.86-1.06v-13.6H812Z"/><path d="M848.84,373.86q-7.25,0-11.44-4.48T833.21,357q0-8,3.89-12.73a12.88,12.88,0,0,1,10.46-4.72,12.27,12.27,0,0,1,9.73,4.1q3.57,4.09,3.58,10.81v3.18H838.34q.15,5.84,2.91,8.86c1.84,2,4.43,3,7.77,3a26,26,0,0,0,10.44-2.23v4.47a25.49,25.49,0,0,1-5,1.65A27.84,27.84,0,0,1,848.84,373.86Zm-1.34-30.15a8,8,0,0,0-6.28,2.6,12.08,12.08,0,0,0-2.76,7.2h17.1c0-3.17-.7-5.59-2.09-7.28A7.34,7.34,0,0,0,847.5,343.71Z"/><path d="M888.88,364.21a8.33,8.33,0,0,1-3.4,7.14q-3.4,2.5-9.55,2.51-6.51,0-10.14-2.09v-4.65a24.38,24.38,0,0,0,5.05,1.9,21.07,21.07,0,0,0,5.21.7,11.66,11.66,0,0,0,6-1.26,4.35,4.35,0,0,0,.43-7.14,26.16,26.16,0,0,0-6.46-3.25,34.67,34.67,0,0,1-6.49-3,8.87,8.87,0,0,1-2.86-2.91,7.67,7.67,0,0,1-.94-3.91,7.45,7.45,0,0,1,3.25-6.39c2.17-1.56,5.14-2.35,8.92-2.35a25.81,25.81,0,0,1,10.32,2.18l-1.76,4.08a23.4,23.4,0,0,0-8.92-2.05,10.09,10.09,0,0,0-5.31,1.12,3.46,3.46,0,0,0-1.79,3.08,3.79,3.79,0,0,0,.67,2.27,6.65,6.65,0,0,0,2.17,1.78,45.4,45.4,0,0,0,5.72,2.45q5.82,2.16,7.87,4.33A7.68,7.68,0,0,1,888.88,364.21Z"/><path d="M906,369.72a16.13,16.13,0,0,0,2.54-.2,16.57,16.57,0,0,0,1.94-.41V373a9.05,9.05,0,0,1-2.37.65,17.89,17.89,0,0,1-2.82.26q-9.5,0-9.49-10.13V344h-4.69v-2.42l4.69-2.09,2.09-7.07h2.86v7.68h9.49V344h-9.49v19.51a6.79,6.79,0,0,0,1.4,4.59A4.86,4.86,0,0,0,906,369.72Z"/><path d="M935.57,373.25l-1-4.71h-.24a13.76,13.76,0,0,1-4.87,4.21,14.68,14.68,0,0,1-6.08,1.11,10.84,10.84,0,0,1-7.62-2.54q-2.76-2.54-2.76-7.23,0-10,15.84-10.52l5.55-.18v-2.06q0-3.9-1.65-5.76c-1.11-1.24-2.87-1.86-5.3-1.86a21.28,21.28,0,0,0-9.25,2.54l-1.52-3.84a23.24,23.24,0,0,1,5.3-2.09,22.81,22.81,0,0,1,5.77-.76q5.85,0,8.67,2.64t2.82,8.43v22.62Zm-3.85-37.59a5.88,5.88,0,0,1-2.51-.56c-.81-.37-1.61-.78-2.4-1.24s-1.54-.86-2.27-1.24a4.62,4.62,0,0,0-2.1-.56,2.77,2.77,0,0,0-2.25.91,6.54,6.54,0,0,0-1.18,2.75h-2.93a10.5,10.5,0,0,1,2.11-5.73,5.48,5.48,0,0,1,4.43-2.07,6.6,6.6,0,0,1,2.65.56,23.4,23.4,0,0,1,2.45,1.24c.78.45,1.52.87,2.24,1.24a4.42,4.42,0,0,0,2,.56,2.65,2.65,0,0,0,2.18-.89,7.32,7.32,0,0,0,1.16-2.77h2.95a10.73,10.73,0,0,1-2.07,5.73A5.49,5.49,0,0,1,931.72,335.66Zm-7.34,34.06a9.94,9.94,0,0,0,7.26-2.58,9.57,9.57,0,0,0,2.64-7.19v-3l-4.95.22q-5.91.21-8.52,1.85a5.64,5.64,0,0,0-2.61,5.13,5.17,5.17,0,0,0,1.63,4.14A6.67,6.67,0,0,0,924.38,369.72Z"/><path d="M976.14,356.65q0,8.1-4,12.66T961,373.86a14.58,14.58,0,0,1-7.79-2.09,13.62,13.62,0,0,1-5.25-6,21,21,0,0,1-1.86-9.13q0-8.1,4-12.62t11.1-4.53a13.77,13.77,0,0,1,10.91,4.63Q976.15,348.77,976.14,356.65Zm-24.91,0q0,6.36,2.5,9.68a9.85,9.85,0,0,0,14.76,0Q971,363,971,356.65t-2.52-9.6q-2.52-3.29-7.45-3.28c-3.24,0-5.68,1.08-7.34,3.23S951.23,352.38,951.23,356.65Z"/><path d="M1019.91,368.81h-.27q-3.43,5.06-10.27,5.05-6.4,0-10-4.45t-3.56-12.64q0-8.19,3.58-12.73a12,12,0,0,1,10-4.54q6.66,0,10.21,4.9h.39l-.21-2.39-.12-2.32V326.2h4.95v47.05h-4Zm-9.91.85c3.38,0,5.83-.94,7.36-2.8s2.28-4.88,2.28-9v-1.06q0-7-2.31-10t-7.39-3a7.55,7.55,0,0,0-6.67,3.43q-2.31,3.44-2.31,9.69c0,4.24.76,7.43,2.3,9.59A7.74,7.74,0,0,0,1010,369.66Z"/><path d="M1061.8,356.65q0,8.1-4,12.66t-11.13,4.55a14.6,14.6,0,0,1-7.79-2.09,13.62,13.62,0,0,1-5.25-6,21,21,0,0,1-1.85-9.13q0-8.1,4-12.62t11.11-4.53a13.75,13.75,0,0,1,10.9,4.63Q1061.8,348.77,1061.8,356.65Zm-24.92,0q0,6.36,2.51,9.68a9.84,9.84,0,0,0,14.75,0q2.52-3.3,2.52-9.69t-2.52-9.6q-2.52-3.29-7.44-3.28c-3.25,0-5.69,1.08-7.34,3.23S1036.88,352.38,1036.88,356.65Z"/><path d="M1090.05,364.21a8.35,8.35,0,0,1-3.4,7.14q-3.4,2.5-9.55,2.51-6.51,0-10.15-2.09v-4.65A24.47,24.47,0,0,0,1072,369a21.07,21.07,0,0,0,5.21.7,11.62,11.62,0,0,0,6-1.26,4.36,4.36,0,0,0,.44-7.14,26.35,26.35,0,0,0-6.46-3.25,34.36,34.36,0,0,1-6.49-3,8.91,8.91,0,0,1-2.87-2.91,7.78,7.78,0,0,1-.94-3.91,7.47,7.47,0,0,1,3.25-6.39c2.17-1.56,5.15-2.35,8.93-2.35a25.81,25.81,0,0,1,10.32,2.18l-1.76,4.08a23.44,23.44,0,0,0-8.92-2.05,10.09,10.09,0,0,0-5.31,1.12,3.44,3.44,0,0,0-1.79,3.08,3.79,3.79,0,0,0,.67,2.27,6.71,6.71,0,0,0,2.16,1.78,46.44,46.44,0,0,0,5.73,2.45q5.82,2.16,7.86,4.33A7.64,7.64,0,0,1,1090.05,364.21Z"/><path d="M1136.29,361.49a10.92,10.92,0,0,1-4.18,9.1q-4.18,3.27-11.34,3.27-7.76,0-11.94-2v-5a31.52,31.52,0,0,0,5.85,1.82,30.65,30.65,0,0,0,6.27.66q5.07,0,7.64-2a6.43,6.43,0,0,0,2.56-5.43,7,7,0,0,0-.91-3.76,8.46,8.46,0,0,0-3-2.71,43.25,43.25,0,0,0-6.49-2.81q-6.09-2.2-8.7-5.23a11.67,11.67,0,0,1-2.61-7.9,9.86,9.86,0,0,1,3.79-8.13q3.8-3,10-3a29.25,29.25,0,0,1,12,2.41l-1.58,4.48a26.77,26.77,0,0,0-10.5-2.3,10.06,10.06,0,0,0-6.3,1.76,5.81,5.81,0,0,0-2.27,4.87,7.5,7.5,0,0,0,.84,3.76,7.89,7.89,0,0,0,2.82,2.69,34.71,34.71,0,0,0,6.07,2.71c4.58,1.65,7.72,3.43,9.45,5.32A10.57,10.57,0,0,1,1136.29,361.49Z"/><path d="M1156.75,373.86q-7.24,0-11.44-4.48t-4.2-12.43q0-8,3.9-12.73a12.87,12.87,0,0,1,10.46-4.72,12.25,12.25,0,0,1,9.72,4.1q3.58,4.09,3.59,10.81v3.18h-22.53q.15,5.84,2.91,8.86c1.84,2,4.43,3,7.77,3a26,26,0,0,0,10.44-2.23v4.47a25.49,25.49,0,0,1-5,1.65A27.84,27.84,0,0,1,1156.75,373.86Zm-1.34-30.15a8,8,0,0,0-6.28,2.6,12,12,0,0,0-2.76,7.2h17.09c0-3.17-.69-5.59-2.08-7.28A7.34,7.34,0,0,0,1155.41,343.71Z"/><path d="M1190.61,339.5a19.24,19.24,0,0,1,3.91.37l-.68,4.65a16.88,16.88,0,0,0-3.59-.45,8.66,8.66,0,0,0-6.78,3.27,12,12,0,0,0-2.82,8.13v17.78h-5V340.11h4.09l.57,6.14h.24a14.45,14.45,0,0,1,4.38-5A9.78,9.78,0,0,1,1190.61,339.5Z"/><path d="M1206.27,373.25l-12.41-33.14h5.31l7,19.66c1.59,4.59,2.53,7.58,2.81,9h.24a66.52,66.52,0,0,1,2.07-6.64q1.74-5,7.83-22h5.31l-12.41,33.14Z"/><path d="M1227.78,331.13a3.37,3.37,0,0,1,.84-2.53,2.89,2.89,0,0,1,2.08-.8,2.86,2.86,0,0,1,2.06.82,3.28,3.28,0,0,1,.87,2.51,3.32,3.32,0,0,1-.87,2.52,2.83,2.83,0,0,1-2.06.83,2.8,2.8,0,0,1-2.08-.83A3.39,3.39,0,0,1,1227.78,331.13Zm5.37,42.12h-5V340.11h5Z"/><path d="M1255.2,373.86q-7.11,0-11-4.43t-3.89-12.54q0-8.31,4-12.85t11.27-4.54a22.21,22.21,0,0,1,4.71.52,15.37,15.37,0,0,1,3.7,1.21l-1.52,4.26a23.49,23.49,0,0,0-3.58-1.1,16,16,0,0,0-3.43-.44q-10,0-10,12.88c0,4.08.81,7.2,2.43,9.38s4,3.26,7.21,3.26a21.74,21.74,0,0,0,8.38-1.78v4.44A17.64,17.64,0,0,1,1255.2,373.86Zm4.41,8.13a5.22,5.22,0,0,1-2.28,4.54q-2.28,1.61-6.76,1.6a14.47,14.47,0,0,1-2.86-.27v-3.21a16.76,16.76,0,0,0,3.1.25,8.31,8.31,0,0,0,3.57-.61,2.28,2.28,0,0,0,1.21-2.24,2.47,2.47,0,0,0-1.18-2.1,12.06,12.06,0,0,0-4.43-1.31l2.62-5.39h3.28l-1.64,3.48Q1259.61,377.92,1259.61,382Z"/><path d="M1297.92,356.65q0,8.1-4,12.66t-11.13,4.55a14.63,14.63,0,0,1-7.79-2.09,13.75,13.75,0,0,1-5.25-6,21.13,21.13,0,0,1-1.85-9.13q0-8.1,4-12.62t11.1-4.53a13.77,13.77,0,0,1,10.91,4.63Q1297.92,348.77,1297.92,356.65Zm-24.92,0q0,6.36,2.51,9.68a9.85,9.85,0,0,0,14.76,0q2.52-3.3,2.52-9.69t-2.52-9.6c-1.68-2.19-4.17-3.28-7.45-3.28s-5.69,1.08-7.34,3.23S1273,352.38,1273,356.65Z"/><path d="M1326.17,364.21a8.33,8.33,0,0,1-3.4,7.14q-3.4,2.5-9.55,2.51c-4.33,0-7.72-.7-10.14-2.09v-4.65a24.38,24.38,0,0,0,5.05,1.9,21.13,21.13,0,0,0,5.21.7,11.63,11.63,0,0,0,6-1.26,4.35,4.35,0,0,0,.43-7.14,26,26,0,0,0-6.46-3.25,35,35,0,0,1-6.49-3,8.87,8.87,0,0,1-2.86-2.91,7.67,7.67,0,0,1-.94-3.91,7.45,7.45,0,0,1,3.25-6.39c2.17-1.56,5.14-2.35,8.92-2.35a25.86,25.86,0,0,1,10.33,2.18l-1.76,4.08a23.48,23.48,0,0,0-8.93-2.05,10.14,10.14,0,0,0-5.31,1.12,3.46,3.46,0,0,0-1.79,3.08,3.85,3.85,0,0,0,.67,2.27,6.65,6.65,0,0,0,2.17,1.78,45.06,45.06,0,0,0,5.73,2.45q5.82,2.16,7.86,4.33A7.68,7.68,0,0,1,1326.17,364.21Z"/><path d="M1369.31,368.81H1369q-3.43,5.06-10.26,5.05-6.42,0-10-4.45t-3.56-12.64q0-8.19,3.58-12.73a12,12,0,0,1,10-4.54q6.65,0,10.2,4.9h.39l-.21-2.39-.12-2.32V326.2h5v47.05h-4Zm-9.91.85c3.38,0,5.84-.94,7.36-2.8s2.28-4.88,2.28-9v-1.06q0-7-2.31-10c-1.54-2-4-3-7.39-3a7.56,7.56,0,0,0-6.67,3.43q-2.31,3.44-2.31,9.69c0,4.24.77,7.43,2.3,9.59A7.74,7.74,0,0,0,1359.4,369.66Z"/><path d="M1411.2,356.65q0,8.1-4,12.66T1396,373.86a14.6,14.6,0,0,1-7.79-2.09,13.62,13.62,0,0,1-5.25-6,21.13,21.13,0,0,1-1.85-9.13q0-8.1,4-12.62t11.1-4.53a13.75,13.75,0,0,1,10.9,4.63Q1411.2,348.77,1411.2,356.65Zm-24.92,0q0,6.36,2.51,9.68a9.84,9.84,0,0,0,14.75,0q2.54-3.3,2.53-9.69t-2.53-9.6q-2.52-3.29-7.44-3.28t-7.34,3.23Q1386.29,350.24,1386.28,356.65Z"/><path d="M1458.06,361.49a10.91,10.91,0,0,1-4.17,9.1q-4.19,3.27-11.34,3.27c-5.18,0-9.15-.68-11.94-2v-5a31.29,31.29,0,0,0,5.85,1.82,30.65,30.65,0,0,0,6.27.66c3.38,0,5.92-.65,7.64-2a6.43,6.43,0,0,0,2.56-5.43,7,7,0,0,0-.91-3.76,8.54,8.54,0,0,0-3-2.71,43.25,43.25,0,0,0-6.49-2.81q-6.09-2.2-8.7-5.23a11.67,11.67,0,0,1-2.61-7.9,9.86,9.86,0,0,1,3.79-8.13c2.52-2,5.87-3,10-3a29.26,29.26,0,0,1,12,2.41l-1.58,4.48a26.78,26.78,0,0,0-10.51-2.3,10.05,10.05,0,0,0-6.29,1.76,5.81,5.81,0,0,0-2.27,4.87,7.5,7.5,0,0,0,.84,3.76,7.72,7.72,0,0,0,2.82,2.69,34.36,34.36,0,0,0,6.07,2.71q6.86,2.47,9.44,5.32A10.57,10.57,0,0,1,1458.06,361.49Z"/><path d="M1498.4,329v28.61q0,7.56-4.5,11.88t-12.39,4.33q-7.87,0-12.19-4.36t-4.31-12V329h5.07v28.85q0,5.53,3,8.5c2,2,4.91,3,8.77,3,3.68,0,6.52-1,8.5-3s3-4.83,3-8.54V329Z"/><path d="M1535.84,373.25l-5.43-14.06h-17.48l-5.37,14.06h-5.14l17.25-44.39h4.27l17.16,44.39Zm-7-18.69-5.07-13.69c-.66-1.74-1.33-3.87-2-6.39a57.36,57.36,0,0,1-1.88,6.39l-5.13,13.69Z"/><path d="M1570.18,361.49a10.91,10.91,0,0,1-4.17,9.1q-4.18,3.27-11.34,3.27c-5.18,0-9.15-.68-11.94-2v-5a31.29,31.29,0,0,0,5.85,1.82,30.65,30.65,0,0,0,6.27.66q5.07,0,7.63-2a6.41,6.41,0,0,0,2.57-5.43,7,7,0,0,0-.91-3.76,8.54,8.54,0,0,0-3-2.71,43.25,43.25,0,0,0-6.49-2.81q-6.09-2.2-8.7-5.23a11.67,11.67,0,0,1-2.61-7.9,9.86,9.86,0,0,1,3.79-8.13c2.52-2,5.87-3,10-3a29.26,29.26,0,0,1,12,2.41l-1.58,4.48A26.78,26.78,0,0,0,1557,333a10.05,10.05,0,0,0-6.29,1.76,5.81,5.81,0,0,0-2.27,4.87,7.5,7.5,0,0,0,.84,3.76,7.72,7.72,0,0,0,2.82,2.69,34.36,34.36,0,0,0,6.07,2.71q6.85,2.47,9.44,5.32A10.57,10.57,0,0,1,1570.18,361.49Z"/><path d="M305.48,283.93l-34.61-34.61a40.78,40.78,0,0,0-57.66,0L178.6,283.93a40.81,40.81,0,0,0,0,57.66l20.92,20.91,13.69,13.69A40.52,40.52,0,0,0,242,388.13c.56,0,1.1,0,1.64,0a40.41,40.41,0,0,0,27.19-11.9l34.61-34.6a38.44,38.44,0,0,0,3.63-4.17c4.9-6.44,24.11-24.6,24.11-24.6S314.16,292.63,305.48,283.93ZM282.6,318.72,248,353.32a8.1,8.1,0,0,1-1.34,1.09l-.51.3a1.91,1.91,0,0,1-.28.15,3.31,3.31,0,0,1-.47.22l-.4.17-.17.06-.13,0-.12,0a3.17,3.17,0,0,1-.41.12l-.18,0-.29.06a4.46,4.46,0,0,1-.7.12l-.39,0a5.3,5.3,0,0,1-.57,0h0a8.1,8.1,0,0,1-3.31-.7,8,8,0,0,1-2.62-1.77L216.76,334l-15.29-15.28a8.45,8.45,0,0,1,0-11.92l34.62-34.61a8.41,8.41,0,0,1,11.91,0l34.6,34.61a8.38,8.38,0,0,1,.88,10.85A6.66,6.66,0,0,1,282.6,318.72Z" class="cls-3"/><circle r="33.36" cy="187.88" cx="332.65" class="cls-3"/><circle r="33.36" cy="187.88" cx="242.2" class="cls-3"/><ellipse ry="16.96" rx="14.7" cy="312.82" cx="280.08" class="cls-3"/><path d="M241.6,312.82s19.21,18.16,24.12,24.6a37.38,37.38,0,0,0,3.63,4.17l34.6,34.6a40.41,40.41,0,0,0,27.19,11.9c.54,0,1.08,0,1.64,0a40.52,40.52,0,0,0,28.83-11.94L375.3,362.5l20.92-20.91a40.81,40.81,0,0,0,0-57.66l-34.61-34.61a40.78,40.78,0,0,0-57.66,0l-34.6,34.61C260.66,292.63,241.6,312.82,241.6,312.82Zm49.74,4.83a8.38,8.38,0,0,1,.88-10.85l34.6-34.61a8.41,8.41,0,0,1,11.91,0l34.62,34.61a8.45,8.45,0,0,1,0,11.92L358.07,334l-19.34,19.32a8.54,8.54,0,0,1-5.93,2.47h0a5.3,5.3,0,0,1-.57,0l-.39,0a4.46,4.46,0,0,1-.7-.12l-.29-.06-.18,0a2.64,2.64,0,0,1-.4-.12l-.13,0-.13,0-.17-.06-.4-.17a3.31,3.31,0,0,1-.47-.22,1.91,1.91,0,0,1-.28-.15c-.17-.1-.34-.19-.5-.3a7.77,7.77,0,0,1-1.35-1.09l-34.6-34.6A6.66,6.66,0,0,1,291.34,317.65Z" class="cls-3"/></svg>